<?xml version="1.0" encoding="utf-8" standalone="no"?>
<!DOCTYPE svg PUBLIC "-//W3C//DTD SVG 1.1//EN"
  "http://www.w3.org/Graphics/SVG/1.1/DTD/svg11.dtd">
<svg xmlns:xlink="http://www.w3.org/1999/xlink" width="718.467187pt" height="381.195469pt" viewBox="0 0 718.467187 381.195469" xmlns="http://www.w3.org/2000/svg" version="1.1">
 <metadata>
  <rdf:RDF xmlns:dc="http://purl.org/dc/elements/1.1/" xmlns:cc="http://creativecommons.org/ns#" xmlns:rdf="http://www.w3.org/1999/02/22-rdf-syntax-ns#">
   <cc:Work>
    <dc:type rdf:resource="http://purl.org/dc/dcmitype/StillImage"/>
    <dc:date>2022-12-21T22:32:12.993504</dc:date>
    <dc:format>image/svg+xml</dc:format>
    <dc:creator>
     <cc:Agent>
      <dc:title>Matplotlib v3.5.2, https://matplotlib.org/</dc:title>
     </cc:Agent>
    </dc:creator>
   </cc:Work>
  </rdf:RDF>
 </metadata>
 <defs>
  <style type="text/css">*{stroke-linejoin: round; stroke-linecap: butt}</style>
 </defs>
 <g id="figure_1">
  <g id="patch_1">
   <path d="M 0 381.195469 
L 718.467187 381.195469 
L 718.467187 0 
L 0 0 
z
" style="fill: #ffffff"/>
  </g>
  <g id="axes_1">
   <g id="patch_2">
    <path d="M 35.304688 343.639219 
L 704.904688 343.639219 
L 704.904688 10.999219 
L 35.304688 10.999219 
z
" style="fill: #ffffff"/>
   </g>
   <g id="matplotlib.axis_1">
    <g id="xtick_1">
     <g id="line2d_1">
      <defs>
       <path id="m588dc293c4" d="M 0 0 
L 0 3.5 
" style="stroke: #000000; stroke-width: 0.8"/>
      </defs>
      <g>
       <use xlink:href="#m588dc293c4" x="35.304688" y="343.639219" style="stroke: #000000; stroke-width: 0.8"/>
      </g>
     </g>
     <g id="text_1">
      <!-- 0 -->
      <g transform="translate(32.123438 358.237656)scale(0.1 -0.1)">
       <defs>
        <path id="DejaVuSans-30" d="M 2034 4250 
Q 1547 4250 1301 3770 
Q 1056 3291 1056 2328 
Q 1056 1369 1301 889 
Q 1547 409 2034 409 
Q 2525 409 2770 889 
Q 3016 1369 3016 2328 
Q 3016 3291 2770 3770 
Q 2525 4250 2034 4250 
z
M 2034 4750 
Q 2819 4750 3233 4129 
Q 3647 3509 3647 2328 
Q 3647 1150 3233 529 
Q 2819 -91 2034 -91 
Q 1250 -91 836 529 
Q 422 1150 422 2328 
Q 422 3509 836 4129 
Q 1250 4750 2034 4750 
z
" transform="scale(0.015625)"/>
       </defs>
       <use xlink:href="#DejaVuSans-30"/>
      </g>
     </g>
    </g>
    <g id="xtick_2">
     <g id="line2d_2">
      <g>
       <use xlink:href="#m588dc293c4" x="119.004688" y="343.639219" style="stroke: #000000; stroke-width: 0.8"/>
      </g>
     </g>
     <g id="text_2">
      <!-- 2 -->
      <g transform="translate(115.823438 358.237656)scale(0.1 -0.1)">
       <defs>
        <path id="DejaVuSans-32" d="M 1228 531 
L 3431 531 
L 3431 0 
L 469 0 
L 469 531 
Q 828 903 1448 1529 
Q 2069 2156 2228 2338 
Q 2531 2678 2651 2914 
Q 2772 3150 2772 3378 
Q 2772 3750 2511 3984 
Q 2250 4219 1831 4219 
Q 1534 4219 1204 4116 
Q 875 4013 500 3803 
L 500 4441 
Q 881 4594 1212 4672 
Q 1544 4750 1819 4750 
Q 2544 4750 2975 4387 
Q 3406 4025 3406 3419 
Q 3406 3131 3298 2873 
Q 3191 2616 2906 2266 
Q 2828 2175 2409 1742 
Q 1991 1309 1228 531 
z
" transform="scale(0.015625)"/>
       </defs>
       <use xlink:href="#DejaVuSans-32"/>
      </g>
     </g>
    </g>
    <g id="xtick_3">
     <g id="line2d_3">
      <g>
       <use xlink:href="#m588dc293c4" x="202.704688" y="343.639219" style="stroke: #000000; stroke-width: 0.8"/>
      </g>
     </g>
     <g id="text_3">
      <!-- 4 -->
      <g transform="translate(199.523438 358.237656)scale(0.1 -0.1)">
       <defs>
        <path id="DejaVuSans-34" d="M 2419 4116 
L 825 1625 
L 2419 1625 
L 2419 4116 
z
M 2253 4666 
L 3047 4666 
L 3047 1625 
L 3713 1625 
L 3713 1100 
L 3047 1100 
L 3047 0 
L 2419 0 
L 2419 1100 
L 313 1100 
L 313 1709 
L 2253 4666 
z
" transform="scale(0.015625)"/>
       </defs>
       <use xlink:href="#DejaVuSans-34"/>
      </g>
     </g>
    </g>
    <g id="xtick_4">
     <g id="line2d_4">
      <g>
       <use xlink:href="#m588dc293c4" x="286.404688" y="343.639219" style="stroke: #000000; stroke-width: 0.8"/>
      </g>
     </g>
     <g id="text_4">
      <!-- 6 -->
      <g transform="translate(283.223438 358.237656)scale(0.1 -0.1)">
       <defs>
        <path id="DejaVuSans-36" d="M 2113 2584 
Q 1688 2584 1439 2293 
Q 1191 2003 1191 1497 
Q 1191 994 1439 701 
Q 1688 409 2113 409 
Q 2538 409 2786 701 
Q 3034 994 3034 1497 
Q 3034 2003 2786 2293 
Q 2538 2584 2113 2584 
z
M 3366 4563 
L 3366 3988 
Q 3128 4100 2886 4159 
Q 2644 4219 2406 4219 
Q 1781 4219 1451 3797 
Q 1122 3375 1075 2522 
Q 1259 2794 1537 2939 
Q 1816 3084 2150 3084 
Q 2853 3084 3261 2657 
Q 3669 2231 3669 1497 
Q 3669 778 3244 343 
Q 2819 -91 2113 -91 
Q 1303 -91 875 529 
Q 447 1150 447 2328 
Q 447 3434 972 4092 
Q 1497 4750 2381 4750 
Q 2619 4750 2861 4703 
Q 3103 4656 3366 4563 
z
" transform="scale(0.015625)"/>
       </defs>
       <use xlink:href="#DejaVuSans-36"/>
      </g>
     </g>
    </g>
    <g id="xtick_5">
     <g id="line2d_5">
      <g>
       <use xlink:href="#m588dc293c4" x="370.104688" y="343.639219" style="stroke: #000000; stroke-width: 0.8"/>
      </g>
     </g>
     <g id="text_5">
      <!-- 8 -->
      <g transform="translate(366.923438 358.237656)scale(0.1 -0.1)">
       <defs>
        <path id="DejaVuSans-38" d="M 2034 2216 
Q 1584 2216 1326 1975 
Q 1069 1734 1069 1313 
Q 1069 891 1326 650 
Q 1584 409 2034 409 
Q 2484 409 2743 651 
Q 3003 894 3003 1313 
Q 3003 1734 2745 1975 
Q 2488 2216 2034 2216 
z
M 1403 2484 
Q 997 2584 770 2862 
Q 544 3141 544 3541 
Q 544 4100 942 4425 
Q 1341 4750 2034 4750 
Q 2731 4750 3128 4425 
Q 3525 4100 3525 3541 
Q 3525 3141 3298 2862 
Q 3072 2584 2669 2484 
Q 3125 2378 3379 2068 
Q 3634 1759 3634 1313 
Q 3634 634 3220 271 
Q 2806 -91 2034 -91 
Q 1263 -91 848 271 
Q 434 634 434 1313 
Q 434 1759 690 2068 
Q 947 2378 1403 2484 
z
M 1172 3481 
Q 1172 3119 1398 2916 
Q 1625 2713 2034 2713 
Q 2441 2713 2670 2916 
Q 2900 3119 2900 3481 
Q 2900 3844 2670 4047 
Q 2441 4250 2034 4250 
Q 1625 4250 1398 4047 
Q 1172 3844 1172 3481 
z
" transform="scale(0.015625)"/>
       </defs>
       <use xlink:href="#DejaVuSans-38"/>
      </g>
     </g>
    </g>
    <g id="xtick_6">
     <g id="line2d_6">
      <g>
       <use xlink:href="#m588dc293c4" x="453.804688" y="343.639219" style="stroke: #000000; stroke-width: 0.8"/>
      </g>
     </g>
     <g id="text_6">
      <!-- 10 -->
      <g transform="translate(447.442187 358.237656)scale(0.1 -0.1)">
       <defs>
        <path id="DejaVuSans-31" d="M 794 531 
L 1825 531 
L 1825 4091 
L 703 3866 
L 703 4441 
L 1819 4666 
L 2450 4666 
L 2450 531 
L 3481 531 
L 3481 0 
L 794 0 
L 794 531 
z
" transform="scale(0.015625)"/>
       </defs>
       <use xlink:href="#DejaVuSans-31"/>
       <use xlink:href="#DejaVuSans-30" x="63.623047"/>
      </g>
     </g>
    </g>
    <g id="xtick_7">
     <g id="line2d_7">
      <g>
       <use xlink:href="#m588dc293c4" x="537.504688" y="343.639219" style="stroke: #000000; stroke-width: 0.8"/>
      </g>
     </g>
     <g id="text_7">
      <!-- 12 -->
      <g transform="translate(531.142188 358.237656)scale(0.1 -0.1)">
       <use xlink:href="#DejaVuSans-31"/>
       <use xlink:href="#DejaVuSans-32" x="63.623047"/>
      </g>
     </g>
    </g>
    <g id="xtick_8">
     <g id="line2d_8">
      <g>
       <use xlink:href="#m588dc293c4" x="621.204687" y="343.639219" style="stroke: #000000; stroke-width: 0.8"/>
      </g>
     </g>
     <g id="text_8">
      <!-- 14 -->
      <g transform="translate(614.842188 358.237656)scale(0.1 -0.1)">
       <use xlink:href="#DejaVuSans-31"/>
       <use xlink:href="#DejaVuSans-34" x="63.623047"/>
      </g>
     </g>
    </g>
    <g id="xtick_9">
     <g id="line2d_9">
      <g>
       <use xlink:href="#m588dc293c4" x="704.904688" y="343.639219" style="stroke: #000000; stroke-width: 0.8"/>
      </g>
     </g>
     <g id="text_9">
      <!-- 16 -->
      <g transform="translate(698.542188 358.237656)scale(0.1 -0.1)">
       <use xlink:href="#DejaVuSans-31"/>
       <use xlink:href="#DejaVuSans-36" x="63.623047"/>
      </g>
     </g>
    </g>
    <g id="text_10">
     <!-- q -->
     <g transform="translate(366.930469 371.915781)scale(0.1 -0.1)">
      <defs>
       <path id="DejaVuSans-71" d="M 947 1747 
Q 947 1113 1208 752 
Q 1469 391 1925 391 
Q 2381 391 2643 752 
Q 2906 1113 2906 1747 
Q 2906 2381 2643 2742 
Q 2381 3103 1925 3103 
Q 1469 3103 1208 2742 
Q 947 2381 947 1747 
z
M 2906 525 
Q 2725 213 2448 61 
Q 2172 -91 1784 -91 
Q 1150 -91 751 415 
Q 353 922 353 1747 
Q 353 2572 751 3078 
Q 1150 3584 1784 3584 
Q 2172 3584 2448 3432 
Q 2725 3281 2906 2969 
L 2906 3500 
L 3481 3500 
L 3481 -1331 
L 2906 -1331 
L 2906 525 
z
" transform="scale(0.015625)"/>
      </defs>
      <use xlink:href="#DejaVuSans-71"/>
     </g>
    </g>
   </g>
   <g id="matplotlib.axis_2">
    <g id="ytick_1">
     <g id="line2d_10">
      <defs>
       <path id="m5a17f5d104" d="M 0 0 
L -3.5 0 
" style="stroke: #000000; stroke-width: 0.8"/>
      </defs>
      <g>
       <use xlink:href="#m5a17f5d104" x="35.304688" y="343.639219" style="stroke: #000000; stroke-width: 0.8"/>
      </g>
     </g>
     <g id="text_11">
      <!-- −10 -->
      <g transform="translate(7.2 347.438438)scale(0.1 -0.1)">
       <defs>
        <path id="DejaVuSans-2212" d="M 678 2272 
L 4684 2272 
L 4684 1741 
L 678 1741 
L 678 2272 
z
" transform="scale(0.015625)"/>
       </defs>
       <use xlink:href="#DejaVuSans-2212"/>
       <use xlink:href="#DejaVuSans-31" x="83.789062"/>
       <use xlink:href="#DejaVuSans-30" x="147.412109"/>
      </g>
     </g>
    </g>
    <g id="ytick_2">
     <g id="line2d_11">
      <g>
       <use xlink:href="#m5a17f5d104" x="35.304688" y="288.199219" style="stroke: #000000; stroke-width: 0.8"/>
      </g>
     </g>
     <g id="text_12">
      <!-- −5 -->
      <g transform="translate(13.5625 291.998438)scale(0.1 -0.1)">
       <defs>
        <path id="DejaVuSans-35" d="M 691 4666 
L 3169 4666 
L 3169 4134 
L 1269 4134 
L 1269 2991 
Q 1406 3038 1543 3061 
Q 1681 3084 1819 3084 
Q 2600 3084 3056 2656 
Q 3513 2228 3513 1497 
Q 3513 744 3044 326 
Q 2575 -91 1722 -91 
Q 1428 -91 1123 -41 
Q 819 9 494 109 
L 494 744 
Q 775 591 1075 516 
Q 1375 441 1709 441 
Q 2250 441 2565 725 
Q 2881 1009 2881 1497 
Q 2881 1984 2565 2268 
Q 2250 2553 1709 2553 
Q 1456 2553 1204 2497 
Q 953 2441 691 2322 
L 691 4666 
z
" transform="scale(0.015625)"/>
       </defs>
       <use xlink:href="#DejaVuSans-2212"/>
       <use xlink:href="#DejaVuSans-35" x="83.789062"/>
      </g>
     </g>
    </g>
    <g id="ytick_3">
     <g id="line2d_12">
      <g>
       <use xlink:href="#m5a17f5d104" x="35.304688" y="232.759219" style="stroke: #000000; stroke-width: 0.8"/>
      </g>
     </g>
     <g id="text_13">
      <!-- 0 -->
      <g transform="translate(21.942188 236.558438)scale(0.1 -0.1)">
       <use xlink:href="#DejaVuSans-30"/>
      </g>
     </g>
    </g>
    <g id="ytick_4">
     <g id="line2d_13">
      <g>
       <use xlink:href="#m5a17f5d104" x="35.304688" y="177.319219" style="stroke: #000000; stroke-width: 0.8"/>
      </g>
     </g>
     <g id="text_14">
      <!-- 5 -->
      <g transform="translate(21.942188 181.118438)scale(0.1 -0.1)">
       <use xlink:href="#DejaVuSans-35"/>
      </g>
     </g>
    </g>
    <g id="ytick_5">
     <g id="line2d_14">
      <g>
       <use xlink:href="#m5a17f5d104" x="35.304688" y="121.879219" style="stroke: #000000; stroke-width: 0.8"/>
      </g>
     </g>
     <g id="text_15">
      <!-- 10 -->
      <g transform="translate(15.579688 125.678438)scale(0.1 -0.1)">
       <use xlink:href="#DejaVuSans-31"/>
       <use xlink:href="#DejaVuSans-30" x="63.623047"/>
      </g>
     </g>
    </g>
    <g id="ytick_6">
     <g id="line2d_15">
      <g>
       <use xlink:href="#m5a17f5d104" x="35.304688" y="66.439219" style="stroke: #000000; stroke-width: 0.8"/>
      </g>
     </g>
     <g id="text_16">
      <!-- 15 -->
      <g transform="translate(15.579688 70.238438)scale(0.1 -0.1)">
       <use xlink:href="#DejaVuSans-31"/>
       <use xlink:href="#DejaVuSans-35" x="63.623047"/>
      </g>
     </g>
    </g>
    <g id="ytick_7">
     <g id="line2d_16">
      <g>
       <use xlink:href="#m5a17f5d104" x="35.304688" y="10.999219" style="stroke: #000000; stroke-width: 0.8"/>
      </g>
     </g>
     <g id="text_17">
      <!-- 20 -->
      <g transform="translate(15.579688 14.798438)scale(0.1 -0.1)">
       <use xlink:href="#DejaVuSans-32"/>
       <use xlink:href="#DejaVuSans-30" x="63.623047"/>
      </g>
     </g>
    </g>
   </g>
   <g id="line2d_17">
    <path d="M 35.304688 232.759219 
L 41.24093 232.870521 
L 47.238477 233.206088 
L 53.389282 233.774198 
L 59.775085 234.588878 
L 66.498059 235.672773 
L 73.670593 237.057223 
L 81.405078 238.779871 
L 89.844556 240.891049 
L 99.152502 243.452997 
L 109.502612 246.536968 
L 121.109448 250.232278 
L 134.197791 254.637592 
L 149.023071 259.867208 
L 165.85094 266.044138 
L 184.947046 273.295544 
L 206.577039 281.751897 
L 230.99635 291.54234 
L 258.419543 302.781239 
L 289.071399 315.587946 
L 323.166479 330.078432 
L 360.898914 346.360376 
L 370.104688 350.366633 
L 370.104688 350.366633 
" clip-path="url(#pb161222ac8)" style="fill: none; stroke: #1f77b4; stroke-width: 1.5; stroke-linecap: square"/>
   </g>
   <g id="line2d_18">
    <path d="M 35.304688 221.671219 
L 47.585864 225.04011 
L 60.633337 228.852423 
L 74.579932 233.161981 
L 89.558472 238.026084 
L 105.732434 243.515268 
L 123.275513 249.707239 
L 142.371619 256.686599 
L 163.235315 264.552404 
L 186.070947 273.402947 
L 211.12373 283.355011 
L 238.638879 294.52831 
L 268.871826 307.049096 
L 302.078003 321.045693 
L 338.523059 336.652482 
L 370.104688 350.351541 
L 370.104688 350.351541 
" clip-path="url(#pb161222ac8)" style="fill: none; stroke: #ff7f0e; stroke-width: 1.5; stroke-linecap: square"/>
   </g>
   <g id="line2d_19">
    <path d="M 35.304688 221.671219 
L 47.146521 218.648706 
L 58.395752 216.004852 
L 69.154553 213.702926 
L 79.51488 211.712198 
L 89.558472 210.007492 
L 99.367065 208.567193 
L 109.012183 207.374826 
L 118.565344 206.417299 
L 128.098071 205.68512 
L 137.671667 205.172948 
L 147.347437 204.878242 
L 157.196899 204.801265 
L 167.28136 204.945585 
L 177.672339 205.317718 
L 188.441357 205.927301 
L 199.649719 206.785915 
L 211.379163 207.90904 
L 223.711426 209.315171 
L 236.71803 211.024028 
L 250.480713 213.058603 
L 265.081213 215.444006 
L 280.60127 218.207242 
L 297.12262 221.377046 
L 314.706567 224.979433 
L 333.434851 229.045512 
L 353.368774 233.603121 
L 370.104688 237.592961 
L 370.104688 237.592961 
" clip-path="url(#pb161222ac8)" style="fill: none; stroke: #2ca02c; stroke-width: 1.5; stroke-linecap: square"/>
   </g>
   <g id="line2d_20">
    <path d="M 35.304688 188.407219 
L 49.813232 188.518213 
L 64.362646 188.851754 
L 78.993799 189.409502 
L 93.788428 190.196693 
L 108.746533 191.215878 
L 123.949854 192.475564 
L 139.398389 193.97905 
L 155.214746 195.742735 
L 171.398926 197.772177 
L 188.032666 200.083311 
L 205.156836 202.6884 
L 222.812305 205.600242 
L 241.080811 208.839607 
L 260.044092 212.429625 
L 279.702148 216.378697 
L 300.177588 220.720253 
L 321.511279 225.472772 
L 343.744092 230.654761 
L 366.998633 236.305007 
L 391.274902 242.433858 
L 416.695508 249.08268 
L 443.301318 256.273175 
L 471.133203 264.026881 
L 500.31377 272.388945 
L 530.883887 281.382516 
L 562.884424 291.030531 
L 596.397119 301.368496 
L 631.462842 312.419844 
L 668.16333 324.221103 
L 704.945557 336.26933 
L 704.945557 336.26933 
" clip-path="url(#pb161222ac8)" style="fill: none; stroke: #d62728; stroke-width: 1.5; stroke-linecap: square"/>
   </g>
   <g id="line2d_21">
    <path d="M 35.304688 188.407219 
L 41.802881 188.296185 
L 48.423682 187.959004 
L 55.289697 187.38393 
L 62.564404 186.547705 
L 70.411279 185.418622 
L 79.157275 183.931005 
L 89.251953 181.981466 
L 101.512695 179.377596 
L 118.350781 175.556328 
L 169.3146 163.858577 
L 186.316162 160.259774 
L 201.682959 157.231354 
L 216.109766 154.612458 
L 229.964404 152.321996 
L 243.410352 150.323097 
L 256.611084 148.58421 
L 269.689209 147.08508 
L 282.726465 145.814179 
L 295.80459 144.762766 
L 309.005322 143.925165 
L 322.369531 143.30047 
L 335.978955 142.887415 
L 349.915332 142.687966 
L 364.219531 142.706843 
L 378.973291 142.950263 
L 394.21748 143.425778 
L 409.992969 144.141381 
L 426.422363 145.110885 
L 443.505664 146.343186 
L 461.324609 147.852857 
L 479.920068 149.652669 
L 499.373779 151.760432 
L 519.726611 154.191075 
L 540.978564 156.954394 
L 563.211377 160.070867 
L 586.465918 163.556811 
L 610.742188 167.422383 
L 636.081055 171.683909 
L 662.48252 176.350971 
L 689.987451 181.440181 
L 704.945557 184.298886 
L 704.945557 184.298886 
" clip-path="url(#pb161222ac8)" style="fill: none; stroke: #9467bd; stroke-width: 1.5; stroke-linecap: square"/>
   </g>
   <g id="line2d_22">
    <path d="M 35.304688 132.967219 
L 53.052112 132.855535 
L 75.029492 132.483284 
L 110.248474 131.630285 
L 154.846924 130.60102 
L 182.157727 130.199255 
L 206.433997 130.062366 
L 229.238977 130.154622 
L 251.216357 130.464393 
L 272.73396 130.98859 
L 294.067651 131.730112 
L 315.309387 132.690401 
L 336.643079 133.87765 
L 358.068726 135.292499 
L 379.770239 136.94883 
L 401.74762 138.849698 
L 424.092822 141.00614 
L 446.897803 143.431611 
L 470.162561 146.130863 
L 493.979053 149.119518 
L 518.347278 152.402774 
L 543.359192 155.998466 
L 569.014795 159.912312 
L 595.406042 164.164319 
L 622.532935 168.760742 
L 650.487427 173.723672 
L 679.269519 179.059886 
L 704.925122 183.999346 
L 704.925122 183.999346 
" clip-path="url(#pb161222ac8)" style="fill: none; stroke: #8c564b; stroke-width: 1.5; stroke-linecap: square"/>
   </g>
   <g id="line2d_23">
    <path d="M 35.304688 132.967219 
L 51.304956 132.85612 
L 65.558069 132.538499 
L 78.707715 132.025668 
L 91.121716 131.320721 
L 103.07594 130.420017 
L 114.754297 129.31793 
L 126.340698 128.002348 
L 138.111011 126.440803 
L 150.15719 124.616301 
L 162.663147 122.496023 
L 175.996704 120.006788 
L 190.433728 117.08168 
L 206.617908 113.570481 
L 225.65271 109.205714 
L 250.940491 103.162675 
L 319.999121 86.546619 
L 342.712146 81.378983 
L 362.942371 77.001488 
L 381.701306 73.167742 
L 399.540686 69.747514 
L 416.736377 66.676198 
L 433.47229 63.911886 
L 449.932336 61.418004 
L 466.208472 59.176578 
L 482.392651 57.171873 
L 498.576831 55.390831 
L 514.852966 53.823349 
L 531.313013 52.462434 
L 547.95697 51.310017 
L 564.876794 50.361811 
L 582.164441 49.616753 
L 599.81991 49.079146 
L 617.935156 48.750714 
L 636.602136 48.636228 
L 655.82085 48.742331 
L 675.591296 49.074319 
L 696.097388 49.642397 
L 704.925122 49.953411 
L 704.925122 49.953411 
" clip-path="url(#pb161222ac8)" style="fill: none; stroke: #e377c2; stroke-width: 1.5; stroke-linecap: square"/>
   </g>
   <g id="line2d_24">
    <path d="M 35.304688 55.351219 
L 58.354883 55.23947 
L 81.732031 54.902434 
L 106.090039 54.326217 
L 132.082813 53.485197 
L 161.018164 52.320356 
L 195.511719 50.699496 
L 248.641602 47.948401 
L 311.580078 44.743788 
L 348.852734 43.073675 
L 381.221094 41.8427 
L 411.137305 40.925256 
L 439.582227 40.273793 
L 467.046289 39.865529 
L 494.019922 39.686847 
L 520.503125 39.733072 
L 546.822852 40.001059 
L 572.979102 40.488829 
L 599.298828 41.202758 
L 625.618555 42.1392 
L 652.101758 43.303424 
L 678.911914 44.705022 
L 705.068164 46.284162 
L 705.068164 46.284162 
" clip-path="url(#pb161222ac8)" style="fill: none; stroke: #7f7f7f; stroke-width: 1.5; stroke-linecap: square"/>
   </g>
   <g id="line2d_25">
    <path d="M 35.304688 55.351219 
L 58.191406 55.240185 
L 80.587695 54.910916 
L 102.003125 54.376975 
L 122.437695 53.646744 
L 141.72793 52.736078 
L 159.873828 51.660149 
L 177.202344 50.41303 
L 193.876953 48.991845 
L 210.061133 47.389746 
L 225.918359 45.595518 
L 241.448633 43.615246 
L 256.978906 41.410763 
L 272.672656 38.956294 
L 288.529883 36.250534 
L 304.877539 33.234774 
L 322.042578 29.838607 
L 340.188477 26.018031 
L 359.805664 21.656951 
L 381.711523 16.554605 
L 407.54082 10.30234 
L 442.851758 1.506306 
L 452.815644 -1 
L 452.815644 -1 
" clip-path="url(#pb161222ac8)" style="fill: none; stroke: #bcbd22; stroke-width: 1.5; stroke-linecap: square"/>
   </g>
   <g id="patch_3">
    <path d="M 35.304688 343.639219 
L 35.304688 10.999219 
" style="fill: none; stroke: #000000; stroke-width: 0.8; stroke-linejoin: miter; stroke-linecap: square"/>
   </g>
   <g id="patch_4">
    <path d="M 704.904688 343.639219 
L 704.904688 10.999219 
" style="fill: none; stroke: #000000; stroke-width: 0.8; stroke-linejoin: miter; stroke-linecap: square"/>
   </g>
   <g id="patch_5">
    <path d="M 35.304688 343.639219 
L 704.904688 343.639219 
" style="fill: none; stroke: #000000; stroke-width: 0.8; stroke-linejoin: miter; stroke-linecap: square"/>
   </g>
   <g id="patch_6">
    <path d="M 35.304688 10.999219 
L 704.904688 10.999219 
" style="fill: none; stroke: #000000; stroke-width: 0.8; stroke-linejoin: miter; stroke-linecap: square"/>
   </g>
   <g id="legend_1">
    <g id="patch_7">
     <path d="M 42.304688 338.639219 
L 144.504688 338.639219 
Q 146.504688 338.639219 146.504688 336.639219 
L 146.504688 264.248594 
Q 146.504688 262.248594 144.504688 262.248594 
L 42.304688 262.248594 
Q 40.304688 262.248594 40.304688 264.248594 
L 40.304688 336.639219 
Q 40.304688 338.639219 42.304688 338.639219 
z
" style="fill: #ffffff; opacity: 0.8; stroke: #cccccc; stroke-linejoin: miter"/>
    </g>
    <g id="line2d_26">
     <path d="M 44.304688 270.347031 
L 54.304688 270.347031 
L 64.304688 270.347031 
" style="fill: none; stroke: #1f77b4; stroke-width: 1.5; stroke-linecap: square"/>
    </g>
    <g id="text_18">
     <!-- $a_0$ -->
     <g transform="translate(72.304688 273.847031)scale(0.1 -0.1)">
      <defs>
       <path id="DejaVuSans-Oblique-61" d="M 3438 1997 
L 3047 0 
L 2472 0 
L 2578 531 
Q 2325 219 2001 64 
Q 1678 -91 1281 -91 
Q 834 -91 548 182 
Q 263 456 263 884 
Q 263 1497 752 1853 
Q 1241 2209 2100 2209 
L 2900 2209 
L 2931 2363 
Q 2938 2388 2941 2417 
Q 2944 2447 2944 2509 
Q 2944 2788 2717 2942 
Q 2491 3097 2081 3097 
Q 1800 3097 1504 3025 
Q 1209 2953 897 2809 
L 997 3341 
Q 1322 3463 1633 3523 
Q 1944 3584 2234 3584 
Q 2853 3584 3176 3315 
Q 3500 3047 3500 2534 
Q 3500 2431 3484 2292 
Q 3469 2153 3438 1997 
z
M 2816 1759 
L 2241 1759 
Q 1534 1759 1195 1570 
Q 856 1381 856 984 
Q 856 709 1029 553 
Q 1203 397 1509 397 
Q 1978 397 2328 733 
Q 2678 1069 2791 1631 
L 2816 1759 
z
" transform="scale(0.015625)"/>
      </defs>
      <use xlink:href="#DejaVuSans-Oblique-61"/>
      <use xlink:href="#DejaVuSans-30" transform="translate(61.279297 -16.40625)scale(0.7)"/>
     </g>
    </g>
    <g id="line2d_27">
     <path d="M 44.304688 285.025156 
L 54.304688 285.025156 
L 64.304688 285.025156 
" style="fill: none; stroke: #ff7f0e; stroke-width: 1.5; stroke-linecap: square"/>
    </g>
    <g id="text_19">
     <!-- $b_1$ -->
     <g transform="translate(72.304688 288.525156)scale(0.1 -0.1)">
      <defs>
       <path id="DejaVuSans-Oblique-62" d="M 3169 2138 
Q 3169 2591 2961 2847 
Q 2753 3103 2388 3103 
Q 2122 3103 1889 2973 
Q 1656 2844 1484 2597 
Q 1303 2338 1198 1995 
Q 1094 1653 1094 1313 
Q 1094 881 1298 636 
Q 1503 391 1863 391 
Q 2134 391 2365 517 
Q 2597 644 2772 891 
Q 2950 1147 3059 1487 
Q 3169 1828 3169 2138 
z
M 1381 2969 
Q 1594 3256 1914 3420 
Q 2234 3584 2584 3584 
Q 3122 3584 3439 3221 
Q 3756 2859 3756 2241 
Q 3756 1734 3570 1259 
Q 3384 784 3041 416 
Q 2816 172 2522 40 
Q 2228 -91 1906 -91 
Q 1566 -91 1316 65 
Q 1066 222 909 531 
L 806 0 
L 231 0 
L 1178 4863 
L 1753 4863 
L 1381 2969 
z
" transform="scale(0.015625)"/>
      </defs>
      <use xlink:href="#DejaVuSans-Oblique-62" transform="translate(0 0.015625)"/>
      <use xlink:href="#DejaVuSans-31" transform="translate(63.476562 -16.390625)scale(0.7)"/>
     </g>
    </g>
    <g id="line2d_28">
     <path d="M 44.304688 299.703281 
L 54.304688 299.703281 
L 64.304688 299.703281 
" style="fill: none; stroke: #2ca02c; stroke-width: 1.5; stroke-linecap: square"/>
    </g>
    <g id="text_20">
     <!-- $a_1$ -->
     <g transform="translate(72.304688 303.203281)scale(0.1 -0.1)">
      <use xlink:href="#DejaVuSans-Oblique-61"/>
      <use xlink:href="#DejaVuSans-31" transform="translate(61.279297 -16.40625)scale(0.7)"/>
     </g>
    </g>
    <g id="line2d_29">
     <path d="M 44.304688 314.381406 
L 54.304688 314.381406 
L 64.304688 314.381406 
" style="fill: none; stroke: #d62728; stroke-width: 1.5; stroke-linecap: square"/>
    </g>
    <g id="text_21">
     <!-- $b_2$ -->
     <g transform="translate(72.304688 317.881406)scale(0.1 -0.1)">
      <use xlink:href="#DejaVuSans-Oblique-62" transform="translate(0 0.015625)"/>
      <use xlink:href="#DejaVuSans-32" transform="translate(63.476562 -16.390625)scale(0.7)"/>
     </g>
    </g>
    <g id="line2d_30">
     <path d="M 44.304688 329.059531 
L 54.304688 329.059531 
L 64.304688 329.059531 
" style="fill: none; stroke: #9467bd; stroke-width: 1.5; stroke-linecap: square"/>
    </g>
    <g id="text_22">
     <!-- $a_2$ -->
     <g transform="translate(72.304688 332.559531)scale(0.1 -0.1)">
      <use xlink:href="#DejaVuSans-Oblique-61"/>
      <use xlink:href="#DejaVuSans-32" transform="translate(61.279297 -16.40625)scale(0.7)"/>
     </g>
    </g>
    <g id="line2d_31">
     <path d="M 103.404688 270.347031 
L 113.404688 270.347031 
L 123.404688 270.347031 
" style="fill: none; stroke: #8c564b; stroke-width: 1.5; stroke-linecap: square"/>
    </g>
    <g id="text_23">
     <!-- $b_3$ -->
     <g transform="translate(131.404688 273.847031)scale(0.1 -0.1)">
      <defs>
       <path id="DejaVuSans-33" d="M 2597 2516 
Q 3050 2419 3304 2112 
Q 3559 1806 3559 1356 
Q 3559 666 3084 287 
Q 2609 -91 1734 -91 
Q 1441 -91 1130 -33 
Q 819 25 488 141 
L 488 750 
Q 750 597 1062 519 
Q 1375 441 1716 441 
Q 2309 441 2620 675 
Q 2931 909 2931 1356 
Q 2931 1769 2642 2001 
Q 2353 2234 1838 2234 
L 1294 2234 
L 1294 2753 
L 1863 2753 
Q 2328 2753 2575 2939 
Q 2822 3125 2822 3475 
Q 2822 3834 2567 4026 
Q 2313 4219 1838 4219 
Q 1578 4219 1281 4162 
Q 984 4106 628 3988 
L 628 4550 
Q 988 4650 1302 4700 
Q 1616 4750 1894 4750 
Q 2613 4750 3031 4423 
Q 3450 4097 3450 3541 
Q 3450 3153 3228 2886 
Q 3006 2619 2597 2516 
z
" transform="scale(0.015625)"/>
      </defs>
      <use xlink:href="#DejaVuSans-Oblique-62" transform="translate(0 0.015625)"/>
      <use xlink:href="#DejaVuSans-33" transform="translate(63.476562 -16.390625)scale(0.7)"/>
     </g>
    </g>
    <g id="line2d_32">
     <path d="M 103.404688 285.025156 
L 113.404688 285.025156 
L 123.404688 285.025156 
" style="fill: none; stroke: #e377c2; stroke-width: 1.5; stroke-linecap: square"/>
    </g>
    <g id="text_24">
     <!-- $a_3$ -->
     <g transform="translate(131.404688 288.525156)scale(0.1 -0.1)">
      <use xlink:href="#DejaVuSans-Oblique-61"/>
      <use xlink:href="#DejaVuSans-33" transform="translate(61.279297 -16.40625)scale(0.7)"/>
     </g>
    </g>
    <g id="line2d_33">
     <path d="M 103.404688 299.703281 
L 113.404688 299.703281 
L 123.404688 299.703281 
" style="fill: none; stroke: #7f7f7f; stroke-width: 1.5; stroke-linecap: square"/>
    </g>
    <g id="text_25">
     <!-- $b_4$ -->
     <g transform="translate(131.404688 303.203281)scale(0.1 -0.1)">
      <use xlink:href="#DejaVuSans-Oblique-62" transform="translate(0 0.015625)"/>
      <use xlink:href="#DejaVuSans-34" transform="translate(63.476562 -16.390625)scale(0.7)"/>
     </g>
    </g>
    <g id="line2d_34">
     <path d="M 103.404688 314.381406 
L 113.404688 314.381406 
L 123.404688 314.381406 
" style="fill: none; stroke: #bcbd22; stroke-width: 1.5; stroke-linecap: square"/>
    </g>
    <g id="text_26">
     <!-- $a_4$ -->
     <g transform="translate(131.404688 317.881406)scale(0.1 -0.1)">
      <use xlink:href="#DejaVuSans-Oblique-61"/>
      <use xlink:href="#DejaVuSans-34" transform="translate(61.279297 -16.40625)scale(0.7)"/>
     </g>
    </g>
   </g>
  </g>
 </g>
 <defs>
  <clipPath id="pb161222ac8">
   <rect x="35.304688" y="10.999219" width="669.6" height="332.64"/>
  </clipPath>
 </defs>
</svg>
