<?xml version="1.0" encoding="utf-8" standalone="no"?>
<!DOCTYPE svg PUBLIC "-//W3C//DTD SVG 1.1//EN"
  "http://www.w3.org/Graphics/SVG/1.1/DTD/svg11.dtd">
<svg xmlns:xlink="http://www.w3.org/1999/xlink" width="737.734375pt" height="382.717344pt" viewBox="0 0 737.734375 382.717344" xmlns="http://www.w3.org/2000/svg" version="1.1">
 <metadata>
  <rdf:RDF xmlns:dc="http://purl.org/dc/elements/1.1/" xmlns:cc="http://creativecommons.org/ns#" xmlns:rdf="http://www.w3.org/1999/02/22-rdf-syntax-ns#">
   <cc:Work>
    <dc:type rdf:resource="http://purl.org/dc/dcmitype/StillImage"/>
    <dc:date>2022-12-24T16:27:42.670000</dc:date>
    <dc:format>image/svg+xml</dc:format>
    <dc:creator>
     <cc:Agent>
      <dc:title>Matplotlib v3.5.2, https://matplotlib.org/</dc:title>
     </cc:Agent>
    </dc:creator>
   </cc:Work>
  </rdf:RDF>
 </metadata>
 <defs>
  <style type="text/css">*{stroke-linejoin: round; stroke-linecap: butt}</style>
 </defs>
 <g id="figure_1">
  <g id="patch_1">
   <path d="M 0 382.717344 
L 737.734375 382.717344 
L 737.734375 0 
L 0 0 
z
" style="fill: #ffffff"/>
  </g>
  <g id="axes_1">
   <g id="patch_2">
    <path d="M 52.982813 343.639219 
L 722.582813 343.639219 
L 722.582813 10.999219 
L 52.982813 10.999219 
z
" style="fill: #ffffff"/>
   </g>
   <g id="line2d_1">
    <path d="M 52.982813 77.527219 
L 59.807959 77.416544 
L 66.633105 77.083822 
L 73.417383 76.530943 
L 80.160791 75.75837 
L 86.822461 74.771811 
L 93.402393 73.572806 
L 99.859717 72.170838 
L 106.194434 70.568352 
L 112.365674 68.778479 
L 118.332568 66.818406 
L 124.095117 64.693614 
L 129.612451 62.424538 
L 134.843701 60.035432 
L 139.747998 57.554067 
L 144.243604 55.03481 
L 148.248779 52.542064 
L 151.722656 50.122699 
L 155.073926 47.507097 
L 161.776465 42.181734 
L 164.800781 40.151173 
L 168.19292 38.150714 
L 172.034619 36.148595 
L 176.203271 34.227287 
L 180.658008 32.418827 
L 185.357959 30.751127 
L 190.303125 29.234234 
L 195.452637 27.888714 
L 200.806494 26.720327 
L 206.364697 25.735174 
L 212.127246 24.939464 
L 218.13501 24.336009 
L 224.347119 23.937121 
L 230.763574 23.748509 
L 237.425244 23.776522 
L 244.29126 24.028214 
L 251.40249 24.511908 
L 258.758936 25.235953 
L 266.360596 26.208236 
L 274.24834 27.443167 
L 282.381299 28.943033 
L 290.800342 30.723531 
L 299.505469 32.793972 
L 308.49668 35.163128 
L 317.773975 37.839261 
L 327.337354 40.83015 
L 337.227686 44.157334 
L 347.444971 47.830489 
L 357.989209 51.858738 
L 368.8604 56.250678 
L 380.099414 61.032223 
L 391.70625 66.213534 
L 403.680908 71.8042 
L 416.023389 77.813269 
L 428.774561 84.270359 
L 441.893555 91.163965 
L 455.462109 98.546829 
L 469.439355 106.407102 
L 483.825293 114.7535 
L 498.660791 123.61902 
L 513.94585 133.01348 
L 529.680469 142.946162 
L 545.905518 153.452626 
L 562.620996 164.543085 
L 579.826904 176.2272 
L 597.564111 188.542794 
L 615.791748 201.471032 
L 634.550684 215.049914 
L 653.840918 229.288848 
L 673.70332 244.227756 
L 694.137891 259.87672 
L 715.144629 276.245292 
L 722.623682 282.139287 
L 722.623682 282.139287 
" clip-path="url(#pce404e5d7f)" style="fill: none; stroke-dasharray: 5.55,2.4; stroke-dashoffset: 0; stroke: #8f8f8f; stroke-width: 1.5"/>
   </g>
   <g id="line2d_2">
    <path d="M 52.982813 77.527219 
L 59.807959 77.416462 
L 66.633105 77.083492 
L 73.417383 76.530186 
L 80.160791 75.756988 
L 86.822461 74.769577 
L 93.402393 73.569444 
L 99.859717 72.166013 
L 106.194434 70.561628 
L 112.365674 68.769278 
L 118.332568 66.805946 
L 124.095117 64.676739 
L 129.612451 62.401479 
L 134.802832 60.022967 
L 139.625391 57.57298 
L 144.039258 55.086308 
L 148.085303 52.5552 
L 152.131348 49.757116 
L 158.098242 45.31198 
L 163.247754 41.588693 
L 166.925977 39.205503 
L 170.481592 37.167353 
L 174.241553 35.270909 
L 178.328467 33.461778 
L 182.742334 31.752944 
L 187.442285 30.171882 
L 192.42832 28.730676 
L 197.618701 27.461931 
L 203.054297 26.363238 
L 208.694238 25.451107 
L 214.538525 24.731473 
L 220.628027 24.20753 
L 226.921875 23.890802 
L 233.420068 23.78685 
L 240.163477 23.902402 
L 247.1521 24.246471 
L 254.385938 24.827591 
L 261.86499 25.653829 
L 269.589258 26.732807 
L 277.55874 28.071715 
L 285.814307 29.685874 
L 294.315088 31.575285 
L 303.101953 33.756534 
L 312.215771 36.249934 
L 321.615674 39.053912 
L 331.30166 42.176037 
L 341.3146 45.638032 
L 351.654492 49.449358 
L 362.321338 53.618933 
L 373.356006 58.172462 
L 384.758496 63.120435 
L 396.487939 68.453755 
L 408.626074 74.218945 
L 421.132031 80.406657 
L 434.04668 87.046598 
L 447.37002 94.148889 
L 461.102051 101.723087 
L 475.242773 109.778216 
L 489.833057 118.347148 
L 504.8729 127.440009 
L 520.362305 137.066369 
L 536.30127 147.235275 
L 552.730664 157.982325 
L 569.650488 169.3175 
L 587.060742 181.250241 
L 605.002295 193.818408 
L 623.475146 207.032234 
L 642.479297 220.901409 
L 662.014746 235.435102 
L 682.122363 250.673242 
L 702.802148 266.625681 
L 722.623682 282.170623 
L 722.623682 282.170623 
" clip-path="url(#pce404e5d7f)" style="fill: none; stroke: #7a7a7a; stroke-width: 1.5; stroke-linecap: square"/>
   </g>
   <g id="line2d_3">
    <path d="M 52.982813 77.527219 
L 59.807959 77.416135 
L 66.633105 77.082166 
L 73.417383 76.527146 
L 80.119922 75.756816 
L 86.781592 74.767358 
L 93.320654 73.572279 
L 99.737109 72.17546 
L 106.030957 70.578976 
L 112.161328 68.795389 
L 118.087354 66.840931 
L 123.768164 64.735366 
L 129.162891 62.501974 
L 134.271533 60.149154 
L 139.134961 57.665823 
L 143.91665 54.974228 
L 149.066162 51.813744 
L 156.259131 47.105733 
L 165.045996 41.407062 
L 169.991162 38.47276 
L 174.36416 36.131635 
L 178.573682 34.127219 
L 182.824072 32.349293 
L 187.237939 30.746283 
L 191.856152 29.307272 
L 196.760449 28.01504 
L 201.909961 26.889576 
L 207.345557 25.93086 
L 213.026367 25.155714 
L 218.952393 24.572069 
L 225.123633 24.188489 
L 231.540088 24.01383 
L 238.201758 24.056959 
L 245.067773 24.324329 
L 252.179004 24.824044 
L 259.535449 25.564257 
L 267.177979 26.558627 
L 275.065723 27.810904 
L 283.198682 29.327937 
L 291.617725 31.125457 
L 300.322852 33.212731 
L 309.314063 35.598495 
L 318.591357 38.290984 
L 328.195605 41.31129 
L 338.126807 44.669574 
L 348.384961 48.37542 
L 358.970068 52.437864 
L 369.882129 56.865421 
L 381.162012 61.683998 
L 392.809717 66.903681 
L 404.825244 72.533988 
L 417.208594 78.583897 
L 430.000635 85.083029 
L 443.160498 92.019748 
L 456.729053 99.424193 
L 470.747168 107.329002 
L 485.173975 115.720914 
L 500.050342 124.632932 
L 515.37627 134.07482 
L 531.151758 144.05581 
L 547.417676 154.611467 
L 564.174023 165.751954 
L 581.420801 177.486887 
L 599.198877 189.854095 
L 617.467383 202.834644 
L 636.267188 216.466546 
L 655.63916 230.789669 
L 675.542432 245.783501 
L 696.017871 261.488011 
L 717.065479 277.912713 
L 722.623682 282.295986 
L 722.623682 282.295986 
" clip-path="url(#pce404e5d7f)" style="fill: none; stroke-dasharray: 5.55,2.4; stroke-dashoffset: 0; stroke: #666666; stroke-width: 1.5"/>
   </g>
   <g id="line2d_4">
    <path d="M 52.982813 77.527219 
L 59.76709 77.41615 
L 66.551367 77.082168 
L 73.294775 76.526947 
L 79.956445 75.755956 
L 86.536377 74.771665 
L 93.03457 73.574686 
L 99.369287 72.18288 
L 105.540527 70.601195 
L 111.548291 68.832543 
L 117.351709 66.893314 
L 123.03252 64.759973 
L 128.672461 62.402057 
L 134.43501 59.749311 
L 140.728857 56.600859 
L 148.534863 52.430799 
L 168.928564 41.410904 
L 175.34502 38.275233 
L 181.066699 35.723932 
L 186.420557 33.57847 
L 191.570068 31.752343 
L 196.678711 30.177019 
L 201.787354 28.835254 
L 206.977734 27.703174 
L 212.290723 26.772903 
L 217.767188 26.039893 
L 223.488867 25.500425 
L 229.414893 25.16578 
L 235.627002 25.039378 
L 242.084326 25.131257 
L 248.827734 25.450437 
L 255.857227 26.006953 
L 263.172803 26.810495 
L 270.774463 27.87051 
L 278.662207 29.196226 
L 286.836035 30.796643 
L 295.295947 32.680502 
L 304.082813 34.866938 
L 313.155762 37.35543 
L 322.514795 40.153664 
L 332.200781 43.282653 
L 342.213721 46.752197 
L 352.553613 50.571583 
L 363.220459 54.749599 
L 374.255127 59.31188 
L 385.657617 64.268837 
L 397.42793 69.630308 
L 409.566064 75.405584 
L 422.072021 81.603434 
L 434.98667 88.253559 
L 448.31001 95.366046 
L 462.042041 102.950425 
L 476.182764 111.015694 
L 490.773047 119.594731 
L 505.812891 128.697641 
L 521.302295 138.333977 
L 537.282129 148.539198 
L 553.711523 159.296705 
L 570.631348 170.642229 
L 588.082471 182.613542 
L 606.024023 195.192439 
L 624.496875 208.416861 
L 643.501025 222.296489 
L 663.077344 236.871195 
L 683.184961 252.120058 
L 703.864746 268.083062 
L 722.623682 282.797743 
L 722.623682 282.797743 
" clip-path="url(#pce404e5d7f)" style="fill: none; stroke: #525252; stroke-width: 1.5; stroke-linecap: square"/>
   </g>
   <g id="line2d_5">
    <path d="M 52.982813 77.527219 
L 59.603613 77.416124 
L 66.183545 77.084496 
L 72.722607 76.533161 
L 79.179932 75.766342 
L 85.555518 74.785389 
L 91.849365 73.591568 
L 98.102344 72.178346 
L 104.396191 70.526733 
L 110.853516 68.601129 
L 117.719531 66.318201 
L 125.362061 63.535794 
L 134.639355 59.909058 
L 152.294824 52.702695 
L 164.759912 47.750323 
L 173.9146 44.348223 
L 181.96582 41.588784 
L 189.404004 39.270874 
L 196.474365 37.29876 
L 203.258643 35.635486 
L 209.879443 34.240341 
L 216.377637 33.097622 
L 222.794092 32.193586 
L 229.210547 31.513533 
L 235.667871 31.053741 
L 242.166064 30.814591 
L 248.745996 30.794937 
L 255.448535 30.997209 
L 262.314551 31.427412 
L 269.384912 32.095064 
L 276.659619 33.007375 
L 284.138672 34.170029 
L 291.903809 35.603685 
L 299.955029 37.31854 
L 308.292334 39.323544 
L 316.956592 41.638066 
L 325.947803 44.272313 
L 335.265967 47.235636 
L 344.951953 50.551164 
L 355.005762 54.229831 
L 365.427393 58.281937 
L 376.216846 62.717236 
L 387.41499 67.563122 
L 398.980957 72.812026 
L 410.955615 78.492129 
L 423.338965 84.613871 
L 436.131006 91.18722 
L 449.331738 98.221686 
L 462.982031 105.749251 
L 477.081885 113.780754 
L 491.59043 122.302159 
L 506.589404 131.371297 
L 522.037939 140.973851 
L 537.976904 151.145085 
L 554.36543 161.868284 
L 571.244385 173.179061 
L 588.654639 185.115098 
L 606.555322 197.658154 
L 624.987305 210.846119 
L 643.950586 224.68865 
L 663.486035 239.225591 
L 683.593652 254.467288 
L 704.273438 270.423551 
L 722.623682 284.809831 
L 722.623682 284.809831 
" clip-path="url(#pce404e5d7f)" style="fill: none; stroke-dasharray: 5.55,2.4; stroke-dashoffset: 0; stroke: #3d3d3d; stroke-width: 1.5"/>
   </g>
   <g id="line2d_6">
    <path d="M 52.982813 77.527219 
L 59.440137 77.415719 
L 65.856592 77.082551 
L 72.232178 76.528273 
L 78.566895 75.753307 
L 84.901611 74.753396 
L 91.318066 73.51503 
L 97.979736 72.001158 
L 105.090967 70.152949 
L 112.937842 67.878621 
L 122.256006 64.936889 
L 135.620215 60.459201 
L 157.73042 53.053964 
L 168.560742 49.679892 
L 178.001514 46.968093 
L 186.706641 44.697063 
L 194.921338 42.782146 
L 202.809082 41.170511 
L 210.451611 39.834675 
L 217.930664 38.752343 
L 225.287109 37.911825 
L 232.561816 37.303802 
L 239.795654 36.921796 
L 247.029492 36.762463 
L 254.26333 36.824795 
L 261.578906 37.110651 
L 268.976221 37.623402 
L 276.455273 38.364962 
L 284.097803 39.347581 
L 291.862939 40.570588 
L 299.832422 42.051843 
L 308.00625 43.798491 
L 316.425293 45.826773 
L 325.089551 48.144587 
L 334.039893 50.771137 
L 343.276318 53.715112 
L 352.839697 56.998632 
L 362.730029 60.631238 
L 372.988184 64.637924 
L 383.61416 69.029154 
L 394.607959 73.81452 
L 406.010449 79.021958 
L 417.821631 84.662185 
L 430.041504 90.745228 
L 442.710938 97.302057 
L 455.829932 104.343891 
L 469.398486 111.881352 
L 483.416602 119.924528 
L 497.925146 128.507545 
L 512.883252 137.616406 
L 528.331787 147.285685 
L 544.270752 157.525636 
L 560.700146 168.346032 
L 577.66084 179.784067 
L 595.152832 191.850481 
L 613.176123 204.555506 
L 631.730713 217.90888 
L 650.816602 231.919864 
L 670.474658 246.628127 
L 690.704883 262.043703 
L 711.507275 278.176131 
L 722.623682 286.908946 
L 722.623682 286.908946 
" clip-path="url(#pce404e5d7f)" style="fill: none; stroke: #292929; stroke-width: 1.5; stroke-linecap: square"/>
   </g>
   <g id="line2d_7">
    <path d="M 52.982813 77.527219 
L 58.908838 77.416421 
L 64.957471 77.079321 
L 71.251318 76.502535 
L 77.912988 75.666212 
L 85.228564 74.519794 
L 93.606738 72.97459 
L 103.864893 70.845584 
L 119.517773 67.340484 
L 143.017529 62.102693 
L 155.932178 59.463993 
L 167.293799 57.366385 
L 177.838037 55.643087 
L 187.891846 54.223499 
L 197.577832 53.078691 
L 207.018604 52.185597 
L 216.255029 51.534023 
L 225.368848 51.113831 
L 234.360059 50.921766 
L 243.269531 50.953713 
L 252.138135 51.208369 
L 260.965869 51.684715 
L 269.793604 52.384473 
L 278.621338 53.307761 
L 287.489941 54.459621 
L 296.399414 55.841484 
L 305.390625 57.461791 
L 314.463574 59.323313 
L 323.659131 61.437852 
L 332.977295 63.809458 
L 342.458936 66.453174 
L 352.104053 69.374215 
L 361.953516 72.590698 
L 372.007324 76.108868 
L 382.306348 79.949724 
L 392.850586 84.120401 
L 403.680908 88.644589 
L 414.797314 93.530188 
L 426.240674 98.803398 
L 438.051855 104.492891 
L 450.18999 110.587836 
L 462.736816 117.138401 
L 475.692334 124.155205 
L 489.056543 131.647922 
L 502.870313 139.649406 
L 517.133643 148.169878 
L 531.887402 157.244239 
L 547.131592 166.883255 
L 562.866211 177.096933 
L 579.132129 187.922123 
L 595.929346 199.369471 
L 613.29873 211.477774 
L 631.199414 224.228872 
L 649.672266 237.661616 
L 668.758154 251.816712 
L 688.416211 266.674287 
L 708.687305 282.275129 
L 722.623682 293.157887 
L 722.623682 293.157887 
" clip-path="url(#pce404e5d7f)" style="fill: none; stroke-dasharray: 5.55,2.4; stroke-dashoffset: 0; stroke: #141414; stroke-width: 1.5"/>
   </g>
   <g id="line2d_8">
    <path d="M 52.982813 77.527219 
L 66.673975 77.638476 
L 80.365137 77.972295 
L 94.056299 78.528813 
L 107.747461 79.308256 
L 121.438623 80.310931 
L 135.088916 81.533226 
L 148.739209 82.978243 
L 162.389502 84.646473 
L 176.039795 86.538446 
L 189.690088 88.65471 
L 203.340381 90.995817 
L 216.990674 93.562307 
L 230.640967 96.354683 
L 244.332129 99.382772 
L 258.023291 102.638932 
L 271.714453 106.123445 
L 285.446484 109.847898 
L 299.219385 113.814374 
L 313.033154 118.024796 
L 326.887793 122.480916 
L 340.783301 127.184283 
L 354.719678 132.13623 
L 368.737793 137.353405 
L 382.837646 142.838708 
L 397.019238 148.594761 
L 411.282568 154.623888 
L 425.668506 160.9464 
L 440.177051 167.566023 
L 454.808203 174.486126 
L 469.602832 181.730047 
L 484.560938 189.302419 
L 499.68252 197.207447 
L 515.008447 205.47127 
L 530.538721 214.099207 
L 546.27334 223.096086 
L 562.253174 232.490596 
L 578.478223 242.288516 
L 594.948486 252.495085 
L 611.704834 263.141277 
L 628.788135 274.260039 
L 646.15752 285.83115 
L 663.894727 297.915747 
L 681.958887 310.492971 
L 700.431738 323.626965 
L 719.272412 337.296146 
L 722.623682 339.755737 
L 722.623682 339.755737 
" clip-path="url(#pce404e5d7f)" style="fill: none; stroke: #000000; stroke-width: 1.5; stroke-linecap: square"/>
   </g>
   <g id="matplotlib.axis_1">
    <g id="xtick_1">
     <g id="line2d_9">
      <defs>
       <path id="m3b58e48c1e" d="M 0 0 
L 0 3.5 
" style="stroke: #000000; stroke-width: 0.8"/>
      </defs>
      <g>
       <use xlink:href="#m3b58e48c1e" x="52.982813" y="343.639219" style="stroke: #000000; stroke-width: 0.8"/>
      </g>
     </g>
     <g id="text_1">
      <!-- 0.0 -->
      <g transform="translate(45.03125 358.237656)scale(0.1 -0.1)">
       <defs>
        <path id="DejaVuSans-30" d="M 2034 4250 
Q 1547 4250 1301 3770 
Q 1056 3291 1056 2328 
Q 1056 1369 1301 889 
Q 1547 409 2034 409 
Q 2525 409 2770 889 
Q 3016 1369 3016 2328 
Q 3016 3291 2770 3770 
Q 2525 4250 2034 4250 
z
M 2034 4750 
Q 2819 4750 3233 4129 
Q 3647 3509 3647 2328 
Q 3647 1150 3233 529 
Q 2819 -91 2034 -91 
Q 1250 -91 836 529 
Q 422 1150 422 2328 
Q 422 3509 836 4129 
Q 1250 4750 2034 4750 
z
" transform="scale(0.015625)"/>
        <path id="DejaVuSans-2e" d="M 684 794 
L 1344 794 
L 1344 0 
L 684 0 
L 684 794 
z
" transform="scale(0.015625)"/>
       </defs>
       <use xlink:href="#DejaVuSans-30"/>
       <use xlink:href="#DejaVuSans-2e" x="63.623047"/>
       <use xlink:href="#DejaVuSans-30" x="95.410156"/>
      </g>
     </g>
    </g>
    <g id="xtick_2">
     <g id="line2d_10">
      <g>
       <use xlink:href="#m3b58e48c1e" x="136.682813" y="343.639219" style="stroke: #000000; stroke-width: 0.8"/>
      </g>
     </g>
     <g id="text_2">
      <!-- 0.5 -->
      <g transform="translate(128.73125 358.237656)scale(0.1 -0.1)">
       <defs>
        <path id="DejaVuSans-35" d="M 691 4666 
L 3169 4666 
L 3169 4134 
L 1269 4134 
L 1269 2991 
Q 1406 3038 1543 3061 
Q 1681 3084 1819 3084 
Q 2600 3084 3056 2656 
Q 3513 2228 3513 1497 
Q 3513 744 3044 326 
Q 2575 -91 1722 -91 
Q 1428 -91 1123 -41 
Q 819 9 494 109 
L 494 744 
Q 775 591 1075 516 
Q 1375 441 1709 441 
Q 2250 441 2565 725 
Q 2881 1009 2881 1497 
Q 2881 1984 2565 2268 
Q 2250 2553 1709 2553 
Q 1456 2553 1204 2497 
Q 953 2441 691 2322 
L 691 4666 
z
" transform="scale(0.015625)"/>
       </defs>
       <use xlink:href="#DejaVuSans-30"/>
       <use xlink:href="#DejaVuSans-2e" x="63.623047"/>
       <use xlink:href="#DejaVuSans-35" x="95.410156"/>
      </g>
     </g>
    </g>
    <g id="xtick_3">
     <g id="line2d_11">
      <g>
       <use xlink:href="#m3b58e48c1e" x="220.382812" y="343.639219" style="stroke: #000000; stroke-width: 0.8"/>
      </g>
     </g>
     <g id="text_3">
      <!-- 1.0 -->
      <g transform="translate(212.43125 358.237656)scale(0.1 -0.1)">
       <defs>
        <path id="DejaVuSans-31" d="M 794 531 
L 1825 531 
L 1825 4091 
L 703 3866 
L 703 4441 
L 1819 4666 
L 2450 4666 
L 2450 531 
L 3481 531 
L 3481 0 
L 794 0 
L 794 531 
z
" transform="scale(0.015625)"/>
       </defs>
       <use xlink:href="#DejaVuSans-31"/>
       <use xlink:href="#DejaVuSans-2e" x="63.623047"/>
       <use xlink:href="#DejaVuSans-30" x="95.410156"/>
      </g>
     </g>
    </g>
    <g id="xtick_4">
     <g id="line2d_12">
      <g>
       <use xlink:href="#m3b58e48c1e" x="304.082813" y="343.639219" style="stroke: #000000; stroke-width: 0.8"/>
      </g>
     </g>
     <g id="text_4">
      <!-- 1.5 -->
      <g transform="translate(296.13125 358.237656)scale(0.1 -0.1)">
       <use xlink:href="#DejaVuSans-31"/>
       <use xlink:href="#DejaVuSans-2e" x="63.623047"/>
       <use xlink:href="#DejaVuSans-35" x="95.410156"/>
      </g>
     </g>
    </g>
    <g id="xtick_5">
     <g id="line2d_13">
      <g>
       <use xlink:href="#m3b58e48c1e" x="387.782813" y="343.639219" style="stroke: #000000; stroke-width: 0.8"/>
      </g>
     </g>
     <g id="text_5">
      <!-- 2.0 -->
      <g transform="translate(379.83125 358.237656)scale(0.1 -0.1)">
       <defs>
        <path id="DejaVuSans-32" d="M 1228 531 
L 3431 531 
L 3431 0 
L 469 0 
L 469 531 
Q 828 903 1448 1529 
Q 2069 2156 2228 2338 
Q 2531 2678 2651 2914 
Q 2772 3150 2772 3378 
Q 2772 3750 2511 3984 
Q 2250 4219 1831 4219 
Q 1534 4219 1204 4116 
Q 875 4013 500 3803 
L 500 4441 
Q 881 4594 1212 4672 
Q 1544 4750 1819 4750 
Q 2544 4750 2975 4387 
Q 3406 4025 3406 3419 
Q 3406 3131 3298 2873 
Q 3191 2616 2906 2266 
Q 2828 2175 2409 1742 
Q 1991 1309 1228 531 
z
" transform="scale(0.015625)"/>
       </defs>
       <use xlink:href="#DejaVuSans-32"/>
       <use xlink:href="#DejaVuSans-2e" x="63.623047"/>
       <use xlink:href="#DejaVuSans-30" x="95.410156"/>
      </g>
     </g>
    </g>
    <g id="xtick_6">
     <g id="line2d_14">
      <g>
       <use xlink:href="#m3b58e48c1e" x="471.482813" y="343.639219" style="stroke: #000000; stroke-width: 0.8"/>
      </g>
     </g>
     <g id="text_6">
      <!-- 2.5 -->
      <g transform="translate(463.53125 358.237656)scale(0.1 -0.1)">
       <use xlink:href="#DejaVuSans-32"/>
       <use xlink:href="#DejaVuSans-2e" x="63.623047"/>
       <use xlink:href="#DejaVuSans-35" x="95.410156"/>
      </g>
     </g>
    </g>
    <g id="xtick_7">
     <g id="line2d_15">
      <g>
       <use xlink:href="#m3b58e48c1e" x="555.182813" y="343.639219" style="stroke: #000000; stroke-width: 0.8"/>
      </g>
     </g>
     <g id="text_7">
      <!-- 3.0 -->
      <g transform="translate(547.23125 358.237656)scale(0.1 -0.1)">
       <defs>
        <path id="DejaVuSans-33" d="M 2597 2516 
Q 3050 2419 3304 2112 
Q 3559 1806 3559 1356 
Q 3559 666 3084 287 
Q 2609 -91 1734 -91 
Q 1441 -91 1130 -33 
Q 819 25 488 141 
L 488 750 
Q 750 597 1062 519 
Q 1375 441 1716 441 
Q 2309 441 2620 675 
Q 2931 909 2931 1356 
Q 2931 1769 2642 2001 
Q 2353 2234 1838 2234 
L 1294 2234 
L 1294 2753 
L 1863 2753 
Q 2328 2753 2575 2939 
Q 2822 3125 2822 3475 
Q 2822 3834 2567 4026 
Q 2313 4219 1838 4219 
Q 1578 4219 1281 4162 
Q 984 4106 628 3988 
L 628 4550 
Q 988 4650 1302 4700 
Q 1616 4750 1894 4750 
Q 2613 4750 3031 4423 
Q 3450 4097 3450 3541 
Q 3450 3153 3228 2886 
Q 3006 2619 2597 2516 
z
" transform="scale(0.015625)"/>
       </defs>
       <use xlink:href="#DejaVuSans-33"/>
       <use xlink:href="#DejaVuSans-2e" x="63.623047"/>
       <use xlink:href="#DejaVuSans-30" x="95.410156"/>
      </g>
     </g>
    </g>
    <g id="xtick_8">
     <g id="line2d_16">
      <g>
       <use xlink:href="#m3b58e48c1e" x="638.882812" y="343.639219" style="stroke: #000000; stroke-width: 0.8"/>
      </g>
     </g>
     <g id="text_8">
      <!-- 3.5 -->
      <g transform="translate(630.93125 358.237656)scale(0.1 -0.1)">
       <use xlink:href="#DejaVuSans-33"/>
       <use xlink:href="#DejaVuSans-2e" x="63.623047"/>
       <use xlink:href="#DejaVuSans-35" x="95.410156"/>
      </g>
     </g>
    </g>
    <g id="xtick_9">
     <g id="line2d_17">
      <g>
       <use xlink:href="#m3b58e48c1e" x="722.582813" y="343.639219" style="stroke: #000000; stroke-width: 0.8"/>
      </g>
     </g>
     <g id="text_9">
      <!-- 4.0 -->
      <g transform="translate(714.63125 358.237656)scale(0.1 -0.1)">
       <defs>
        <path id="DejaVuSans-34" d="M 2419 4116 
L 825 1625 
L 2419 1625 
L 2419 4116 
z
M 2253 4666 
L 3047 4666 
L 3047 1625 
L 3713 1625 
L 3713 1100 
L 3047 1100 
L 3047 0 
L 2419 0 
L 2419 1100 
L 313 1100 
L 313 1709 
L 2253 4666 
z
" transform="scale(0.015625)"/>
       </defs>
       <use xlink:href="#DejaVuSans-34"/>
       <use xlink:href="#DejaVuSans-2e" x="63.623047"/>
       <use xlink:href="#DejaVuSans-30" x="95.410156"/>
      </g>
     </g>
    </g>
    <g id="text_10">
     <!-- $q / n^2$ -->
     <g transform="translate(377.132813 373.417344)scale(0.1 -0.1)">
      <defs>
       <path id="DejaVuSans-Oblique-71" d="M 2669 525 
Q 2438 222 2123 65 
Q 1809 -91 1428 -91 
Q 897 -91 595 267 
Q 294 625 294 1253 
Q 294 1759 480 2231 
Q 666 2703 1013 3078 
Q 1238 3322 1530 3453 
Q 1822 3584 2144 3584 
Q 2531 3584 2781 3431 
Q 3031 3278 3144 2969 
L 3244 3494 
L 3822 3494 
L 2888 -1319 
L 2309 -1319 
L 2669 525 
z
M 891 1338 
Q 891 875 1084 633 
Q 1278 391 1644 391 
Q 2188 391 2572 911 
Q 2956 1431 2956 2175 
Q 2956 2625 2757 2864 
Q 2559 3103 2188 3103 
Q 1916 3103 1684 2976 
Q 1453 2850 1281 2606 
Q 1100 2350 995 2006 
Q 891 1663 891 1338 
z
" transform="scale(0.015625)"/>
       <path id="DejaVuSans-2f" d="M 1625 4666 
L 2156 4666 
L 531 -594 
L 0 -594 
L 1625 4666 
z
" transform="scale(0.015625)"/>
       <path id="DejaVuSans-Oblique-6e" d="M 3566 2113 
L 3156 0 
L 2578 0 
L 2988 2091 
Q 3016 2238 3031 2350 
Q 3047 2463 3047 2528 
Q 3047 2791 2881 2937 
Q 2716 3084 2419 3084 
Q 1956 3084 1622 2776 
Q 1288 2469 1184 1941 
L 800 0 
L 225 0 
L 903 3500 
L 1478 3500 
L 1363 2950 
Q 1603 3253 1940 3418 
Q 2278 3584 2650 3584 
Q 3113 3584 3367 3334 
Q 3622 3084 3622 2631 
Q 3622 2519 3608 2391 
Q 3594 2263 3566 2113 
z
" transform="scale(0.015625)"/>
      </defs>
      <use xlink:href="#DejaVuSans-Oblique-71" transform="translate(0 0.765625)"/>
      <use xlink:href="#DejaVuSans-2f" transform="translate(63.476562 0.765625)"/>
      <use xlink:href="#DejaVuSans-Oblique-6e" transform="translate(97.167969 0.765625)"/>
      <use xlink:href="#DejaVuSans-32" transform="translate(165.196771 39.046875)scale(0.7)"/>
     </g>
    </g>
   </g>
   <g id="matplotlib.axis_2">
    <g id="ytick_1">
     <g id="line2d_18">
      <defs>
       <path id="m845b4be295" d="M 0 0 
L -3.5 0 
" style="stroke: #000000; stroke-width: 0.8"/>
      </defs>
      <g>
       <use xlink:href="#m845b4be295" x="52.982813" y="343.639219" style="stroke: #000000; stroke-width: 0.8"/>
      </g>
     </g>
     <g id="text_11">
      <!-- −2.0 -->
      <g transform="translate(21.7 347.438438)scale(0.1 -0.1)">
       <defs>
        <path id="DejaVuSans-2212" d="M 678 2272 
L 4684 2272 
L 4684 1741 
L 678 1741 
L 678 2272 
z
" transform="scale(0.015625)"/>
       </defs>
       <use xlink:href="#DejaVuSans-2212"/>
       <use xlink:href="#DejaVuSans-32" x="83.789062"/>
       <use xlink:href="#DejaVuSans-2e" x="147.412109"/>
       <use xlink:href="#DejaVuSans-30" x="179.199219"/>
      </g>
     </g>
    </g>
    <g id="ytick_2">
     <g id="line2d_19">
      <g>
       <use xlink:href="#m845b4be295" x="52.982813" y="277.111219" style="stroke: #000000; stroke-width: 0.8"/>
      </g>
     </g>
     <g id="text_12">
      <!-- −1.5 -->
      <g transform="translate(21.7 280.910438)scale(0.1 -0.1)">
       <use xlink:href="#DejaVuSans-2212"/>
       <use xlink:href="#DejaVuSans-31" x="83.789062"/>
       <use xlink:href="#DejaVuSans-2e" x="147.412109"/>
       <use xlink:href="#DejaVuSans-35" x="179.199219"/>
      </g>
     </g>
    </g>
    <g id="ytick_3">
     <g id="line2d_20">
      <g>
       <use xlink:href="#m845b4be295" x="52.982813" y="210.583219" style="stroke: #000000; stroke-width: 0.8"/>
      </g>
     </g>
     <g id="text_13">
      <!-- −1.0 -->
      <g transform="translate(21.7 214.382438)scale(0.1 -0.1)">
       <use xlink:href="#DejaVuSans-2212"/>
       <use xlink:href="#DejaVuSans-31" x="83.789062"/>
       <use xlink:href="#DejaVuSans-2e" x="147.412109"/>
       <use xlink:href="#DejaVuSans-30" x="179.199219"/>
      </g>
     </g>
    </g>
    <g id="ytick_4">
     <g id="line2d_21">
      <g>
       <use xlink:href="#m845b4be295" x="52.982813" y="144.055219" style="stroke: #000000; stroke-width: 0.8"/>
      </g>
     </g>
     <g id="text_14">
      <!-- −0.5 -->
      <g transform="translate(21.7 147.854438)scale(0.1 -0.1)">
       <use xlink:href="#DejaVuSans-2212"/>
       <use xlink:href="#DejaVuSans-30" x="83.789062"/>
       <use xlink:href="#DejaVuSans-2e" x="147.412109"/>
       <use xlink:href="#DejaVuSans-35" x="179.199219"/>
      </g>
     </g>
    </g>
    <g id="ytick_5">
     <g id="line2d_22">
      <g>
       <use xlink:href="#m845b4be295" x="52.982813" y="77.527219" style="stroke: #000000; stroke-width: 0.8"/>
      </g>
     </g>
     <g id="text_15">
      <!-- 0.0 -->
      <g transform="translate(30.079688 81.326438)scale(0.1 -0.1)">
       <use xlink:href="#DejaVuSans-30"/>
       <use xlink:href="#DejaVuSans-2e" x="63.623047"/>
       <use xlink:href="#DejaVuSans-30" x="95.410156"/>
      </g>
     </g>
    </g>
    <g id="ytick_6">
     <g id="line2d_23">
      <g>
       <use xlink:href="#m845b4be295" x="52.982813" y="10.999219" style="stroke: #000000; stroke-width: 0.8"/>
      </g>
     </g>
     <g id="text_16">
      <!-- 0.5 -->
      <g transform="translate(30.079688 14.798438)scale(0.1 -0.1)">
       <use xlink:href="#DejaVuSans-30"/>
       <use xlink:href="#DejaVuSans-2e" x="63.623047"/>
       <use xlink:href="#DejaVuSans-35" x="95.410156"/>
      </g>
     </g>
    </g>
    <g id="text_17">
     <!-- $((a+b)/2 - n^2) / n^2$ -->
     <g transform="translate(15.620313 221.569219)rotate(-90)scale(0.1 -0.1)">
      <defs>
       <path id="DejaVuSans-28" d="M 1984 4856 
Q 1566 4138 1362 3434 
Q 1159 2731 1159 2009 
Q 1159 1288 1364 580 
Q 1569 -128 1984 -844 
L 1484 -844 
Q 1016 -109 783 600 
Q 550 1309 550 2009 
Q 550 2706 781 3412 
Q 1013 4119 1484 4856 
L 1984 4856 
z
" transform="scale(0.015625)"/>
       <path id="DejaVuSans-Oblique-61" d="M 3438 1997 
L 3047 0 
L 2472 0 
L 2578 531 
Q 2325 219 2001 64 
Q 1678 -91 1281 -91 
Q 834 -91 548 182 
Q 263 456 263 884 
Q 263 1497 752 1853 
Q 1241 2209 2100 2209 
L 2900 2209 
L 2931 2363 
Q 2938 2388 2941 2417 
Q 2944 2447 2944 2509 
Q 2944 2788 2717 2942 
Q 2491 3097 2081 3097 
Q 1800 3097 1504 3025 
Q 1209 2953 897 2809 
L 997 3341 
Q 1322 3463 1633 3523 
Q 1944 3584 2234 3584 
Q 2853 3584 3176 3315 
Q 3500 3047 3500 2534 
Q 3500 2431 3484 2292 
Q 3469 2153 3438 1997 
z
M 2816 1759 
L 2241 1759 
Q 1534 1759 1195 1570 
Q 856 1381 856 984 
Q 856 709 1029 553 
Q 1203 397 1509 397 
Q 1978 397 2328 733 
Q 2678 1069 2791 1631 
L 2816 1759 
z
" transform="scale(0.015625)"/>
       <path id="DejaVuSans-2b" d="M 2944 4013 
L 2944 2272 
L 4684 2272 
L 4684 1741 
L 2944 1741 
L 2944 0 
L 2419 0 
L 2419 1741 
L 678 1741 
L 678 2272 
L 2419 2272 
L 2419 4013 
L 2944 4013 
z
" transform="scale(0.015625)"/>
       <path id="DejaVuSans-Oblique-62" d="M 3169 2138 
Q 3169 2591 2961 2847 
Q 2753 3103 2388 3103 
Q 2122 3103 1889 2973 
Q 1656 2844 1484 2597 
Q 1303 2338 1198 1995 
Q 1094 1653 1094 1313 
Q 1094 881 1298 636 
Q 1503 391 1863 391 
Q 2134 391 2365 517 
Q 2597 644 2772 891 
Q 2950 1147 3059 1487 
Q 3169 1828 3169 2138 
z
M 1381 2969 
Q 1594 3256 1914 3420 
Q 2234 3584 2584 3584 
Q 3122 3584 3439 3221 
Q 3756 2859 3756 2241 
Q 3756 1734 3570 1259 
Q 3384 784 3041 416 
Q 2816 172 2522 40 
Q 2228 -91 1906 -91 
Q 1566 -91 1316 65 
Q 1066 222 909 531 
L 806 0 
L 231 0 
L 1178 4863 
L 1753 4863 
L 1381 2969 
z
" transform="scale(0.015625)"/>
       <path id="DejaVuSans-29" d="M 513 4856 
L 1013 4856 
Q 1481 4119 1714 3412 
Q 1947 2706 1947 2009 
Q 1947 1309 1714 600 
Q 1481 -109 1013 -844 
L 513 -844 
Q 928 -128 1133 580 
Q 1338 1288 1338 2009 
Q 1338 2731 1133 3434 
Q 928 4138 513 4856 
z
" transform="scale(0.015625)"/>
      </defs>
      <use xlink:href="#DejaVuSans-28" transform="translate(0 0.765625)"/>
      <use xlink:href="#DejaVuSans-28" transform="translate(39.013672 0.765625)"/>
      <use xlink:href="#DejaVuSans-Oblique-61" transform="translate(78.027344 0.765625)"/>
      <use xlink:href="#DejaVuSans-2b" transform="translate(158.789062 0.765625)"/>
      <use xlink:href="#DejaVuSans-Oblique-62" transform="translate(262.060547 0.765625)"/>
      <use xlink:href="#DejaVuSans-29" transform="translate(325.537109 0.765625)"/>
      <use xlink:href="#DejaVuSans-2f" transform="translate(364.550781 0.765625)"/>
      <use xlink:href="#DejaVuSans-32" transform="translate(394.617188 0.765625)"/>
      <use xlink:href="#DejaVuSans-2212" transform="translate(477.722656 0.765625)"/>
      <use xlink:href="#DejaVuSans-Oblique-6e" transform="translate(580.994141 0.765625)"/>
      <use xlink:href="#DejaVuSans-32" transform="translate(649.022943 39.046875)scale(0.7)"/>
      <use xlink:href="#DejaVuSans-29" transform="translate(696.293451 0.765625)"/>
      <use xlink:href="#DejaVuSans-2f" transform="translate(735.307122 0.765625)"/>
      <use xlink:href="#DejaVuSans-Oblique-6e" transform="translate(768.998529 0.765625)"/>
      <use xlink:href="#DejaVuSans-32" transform="translate(837.027331 39.046875)scale(0.7)"/>
     </g>
    </g>
   </g>
   <g id="patch_3">
    <path d="M 52.982813 343.639219 
L 52.982813 10.999219 
" style="fill: none; stroke: #000000; stroke-width: 0.8; stroke-linejoin: miter; stroke-linecap: square"/>
   </g>
   <g id="patch_4">
    <path d="M 722.582813 343.639219 
L 722.582813 10.999219 
" style="fill: none; stroke: #000000; stroke-width: 0.8; stroke-linejoin: miter; stroke-linecap: square"/>
   </g>
   <g id="patch_5">
    <path d="M 52.982813 343.639219 
L 722.582813 343.639219 
" style="fill: none; stroke: #000000; stroke-width: 0.8; stroke-linejoin: miter; stroke-linecap: square"/>
   </g>
   <g id="patch_6">
    <path d="M 52.982813 10.999219 
L 722.582813 10.999219 
" style="fill: none; stroke: #000000; stroke-width: 0.8; stroke-linejoin: miter; stroke-linecap: square"/>
   </g>
   <g id="legend_1">
    <g id="patch_7">
     <path d="M 59.982813 338.639219 
L 123.382813 338.639219 
Q 125.382813 338.639219 125.382813 336.639219 
L 125.382813 220.214219 
Q 125.382813 218.214219 123.382813 218.214219 
L 59.982813 218.214219 
Q 57.982813 218.214219 57.982813 220.214219 
L 57.982813 336.639219 
Q 57.982813 338.639219 59.982813 338.639219 
z
" style="fill: #ffffff; opacity: 0.8; stroke: #cccccc; stroke-linejoin: miter"/>
    </g>
    <g id="line2d_24">
     <path d="M 61.982813 226.312656 
L 71.982813 226.312656 
L 81.982813 226.312656 
" style="fill: none; stroke: #000000; stroke-width: 1.5; stroke-linecap: square"/>
    </g>
    <g id="text_18">
     <!-- $n=1$ -->
     <g transform="translate(89.982813 229.812656)scale(0.1 -0.1)">
      <defs>
       <path id="DejaVuSans-3d" d="M 678 2906 
L 4684 2906 
L 4684 2381 
L 678 2381 
L 678 2906 
z
M 678 1631 
L 4684 1631 
L 4684 1100 
L 678 1100 
L 678 1631 
z
" transform="scale(0.015625)"/>
      </defs>
      <use xlink:href="#DejaVuSans-Oblique-6e" transform="translate(0 0.09375)"/>
      <use xlink:href="#DejaVuSans-3d" transform="translate(82.861328 0.09375)"/>
      <use xlink:href="#DejaVuSans-31" transform="translate(186.132812 0.09375)"/>
     </g>
    </g>
    <g id="line2d_25">
     <path d="M 61.982813 240.990781 
L 71.982813 240.990781 
L 81.982813 240.990781 
" style="fill: none; stroke-dasharray: 5.55,2.4; stroke-dashoffset: 0; stroke: #141414; stroke-width: 1.5"/>
    </g>
    <g id="text_19">
     <!-- $n=2$ -->
     <g transform="translate(89.982813 244.490781)scale(0.1 -0.1)">
      <use xlink:href="#DejaVuSans-Oblique-6e" transform="translate(0 0.78125)"/>
      <use xlink:href="#DejaVuSans-3d" transform="translate(82.861328 0.78125)"/>
      <use xlink:href="#DejaVuSans-32" transform="translate(186.132812 0.78125)"/>
     </g>
    </g>
    <g id="line2d_26">
     <path d="M 61.982813 255.668906 
L 71.982813 255.668906 
L 81.982813 255.668906 
" style="fill: none; stroke: #292929; stroke-width: 1.5; stroke-linecap: square"/>
    </g>
    <g id="text_20">
     <!-- $n=3$ -->
     <g transform="translate(89.982813 259.168906)scale(0.1 -0.1)">
      <use xlink:href="#DejaVuSans-Oblique-6e" transform="translate(0 0.78125)"/>
      <use xlink:href="#DejaVuSans-3d" transform="translate(82.861328 0.78125)"/>
      <use xlink:href="#DejaVuSans-33" transform="translate(186.132812 0.78125)"/>
     </g>
    </g>
    <g id="line2d_27">
     <path d="M 61.982813 270.347031 
L 71.982813 270.347031 
L 81.982813 270.347031 
" style="fill: none; stroke-dasharray: 5.55,2.4; stroke-dashoffset: 0; stroke: #3d3d3d; stroke-width: 1.5"/>
    </g>
    <g id="text_21">
     <!-- $n=4$ -->
     <g transform="translate(89.982813 273.847031)scale(0.1 -0.1)">
      <use xlink:href="#DejaVuSans-Oblique-6e" transform="translate(0 0.09375)"/>
      <use xlink:href="#DejaVuSans-3d" transform="translate(82.861328 0.09375)"/>
      <use xlink:href="#DejaVuSans-34" transform="translate(186.132812 0.09375)"/>
     </g>
    </g>
    <g id="line2d_28">
     <path d="M 61.982813 285.025156 
L 71.982813 285.025156 
L 81.982813 285.025156 
" style="fill: none; stroke: #525252; stroke-width: 1.5; stroke-linecap: square"/>
    </g>
    <g id="text_22">
     <!-- $n=8$ -->
     <g transform="translate(89.982813 288.525156)scale(0.1 -0.1)">
      <defs>
       <path id="DejaVuSans-38" d="M 2034 2216 
Q 1584 2216 1326 1975 
Q 1069 1734 1069 1313 
Q 1069 891 1326 650 
Q 1584 409 2034 409 
Q 2484 409 2743 651 
Q 3003 894 3003 1313 
Q 3003 1734 2745 1975 
Q 2488 2216 2034 2216 
z
M 1403 2484 
Q 997 2584 770 2862 
Q 544 3141 544 3541 
Q 544 4100 942 4425 
Q 1341 4750 2034 4750 
Q 2731 4750 3128 4425 
Q 3525 4100 3525 3541 
Q 3525 3141 3298 2862 
Q 3072 2584 2669 2484 
Q 3125 2378 3379 2068 
Q 3634 1759 3634 1313 
Q 3634 634 3220 271 
Q 2806 -91 2034 -91 
Q 1263 -91 848 271 
Q 434 634 434 1313 
Q 434 1759 690 2068 
Q 947 2378 1403 2484 
z
M 1172 3481 
Q 1172 3119 1398 2916 
Q 1625 2713 2034 2713 
Q 2441 2713 2670 2916 
Q 2900 3119 2900 3481 
Q 2900 3844 2670 4047 
Q 2441 4250 2034 4250 
Q 1625 4250 1398 4047 
Q 1172 3844 1172 3481 
z
" transform="scale(0.015625)"/>
      </defs>
      <use xlink:href="#DejaVuSans-Oblique-6e" transform="translate(0 0.78125)"/>
      <use xlink:href="#DejaVuSans-3d" transform="translate(82.861328 0.78125)"/>
      <use xlink:href="#DejaVuSans-38" transform="translate(186.132812 0.78125)"/>
     </g>
    </g>
    <g id="line2d_29">
     <path d="M 61.982813 299.703281 
L 71.982813 299.703281 
L 81.982813 299.703281 
" style="fill: none; stroke-dasharray: 5.55,2.4; stroke-dashoffset: 0; stroke: #666666; stroke-width: 1.5"/>
    </g>
    <g id="text_23">
     <!-- $n=16$ -->
     <g transform="translate(89.982813 303.203281)scale(0.1 -0.1)">
      <defs>
       <path id="DejaVuSans-36" d="M 2113 2584 
Q 1688 2584 1439 2293 
Q 1191 2003 1191 1497 
Q 1191 994 1439 701 
Q 1688 409 2113 409 
Q 2538 409 2786 701 
Q 3034 994 3034 1497 
Q 3034 2003 2786 2293 
Q 2538 2584 2113 2584 
z
M 3366 4563 
L 3366 3988 
Q 3128 4100 2886 4159 
Q 2644 4219 2406 4219 
Q 1781 4219 1451 3797 
Q 1122 3375 1075 2522 
Q 1259 2794 1537 2939 
Q 1816 3084 2150 3084 
Q 2853 3084 3261 2657 
Q 3669 2231 3669 1497 
Q 3669 778 3244 343 
Q 2819 -91 2113 -91 
Q 1303 -91 875 529 
Q 447 1150 447 2328 
Q 447 3434 972 4092 
Q 1497 4750 2381 4750 
Q 2619 4750 2861 4703 
Q 3103 4656 3366 4563 
z
" transform="scale(0.015625)"/>
      </defs>
      <use xlink:href="#DejaVuSans-Oblique-6e" transform="translate(0 0.78125)"/>
      <use xlink:href="#DejaVuSans-3d" transform="translate(82.861328 0.78125)"/>
      <use xlink:href="#DejaVuSans-31" transform="translate(186.132812 0.78125)"/>
      <use xlink:href="#DejaVuSans-36" transform="translate(249.755859 0.78125)"/>
     </g>
    </g>
    <g id="line2d_30">
     <path d="M 61.982813 314.381406 
L 71.982813 314.381406 
L 81.982813 314.381406 
" style="fill: none; stroke: #7a7a7a; stroke-width: 1.5; stroke-linecap: square"/>
    </g>
    <g id="text_24">
     <!-- $n=32$ -->
     <g transform="translate(89.982813 317.881406)scale(0.1 -0.1)">
      <use xlink:href="#DejaVuSans-Oblique-6e" transform="translate(0 0.78125)"/>
      <use xlink:href="#DejaVuSans-3d" transform="translate(82.861328 0.78125)"/>
      <use xlink:href="#DejaVuSans-33" transform="translate(186.132812 0.78125)"/>
      <use xlink:href="#DejaVuSans-32" transform="translate(249.755859 0.78125)"/>
     </g>
    </g>
    <g id="line2d_31">
     <path d="M 61.982813 329.059531 
L 71.982813 329.059531 
L 81.982813 329.059531 
" style="fill: none; stroke-dasharray: 5.55,2.4; stroke-dashoffset: 0; stroke: #8f8f8f; stroke-width: 1.5"/>
    </g>
    <g id="text_25">
     <!-- $n=64$ -->
     <g transform="translate(89.982813 332.559531)scale(0.1 -0.1)">
      <use xlink:href="#DejaVuSans-Oblique-6e" transform="translate(0 0.78125)"/>
      <use xlink:href="#DejaVuSans-3d" transform="translate(82.861328 0.78125)"/>
      <use xlink:href="#DejaVuSans-36" transform="translate(186.132812 0.78125)"/>
      <use xlink:href="#DejaVuSans-34" transform="translate(249.755859 0.78125)"/>
     </g>
    </g>
   </g>
  </g>
 </g>
 <defs>
  <clipPath id="pce404e5d7f">
   <rect x="52.982813" y="10.999219" width="669.6" height="332.64"/>
  </clipPath>
 </defs>
</svg>
