<?xml version="1.0" encoding="UTF-8" standalone="no"?>
<svg
   xmlns:dc="http://purl.org/dc/elements/1.1/"
   xmlns:cc="http://creativecommons.org/ns#"
   xmlns:rdf="http://www.w3.org/1999/02/22-rdf-syntax-ns#"
   xmlns:svg="http://www.w3.org/2000/svg"
   xmlns="http://www.w3.org/2000/svg"
   xmlns:xlink="http://www.w3.org/1999/xlink"
   xmlns:sodipodi="http://sodipodi.sourceforge.net/DTD/sodipodi-0.dtd"
   xmlns:inkscape="http://www.inkscape.org/namespaces/inkscape"
   width="732.967187pt"
   height="382.717344pt"
   viewBox="0 0 732.967187 382.717344"
   version="1.1"
   id="svg666"
   sodipodi:docname="eigen_plot_normalized.svg"
   inkscape:version="0.92.4 (5da689c313, 2019-01-14)">
  <sodipodi:namedview
     pagecolor="#ffffff"
     bordercolor="#666666"
     borderopacity="1"
     objecttolerance="10"
     gridtolerance="10"
     guidetolerance="10"
     inkscape:pageopacity="0"
     inkscape:pageshadow="2"
     inkscape:window-width="1920"
     inkscape:window-height="1017"
     id="namedview668"
     showgrid="true"
     inkscape:zoom="1.8499292"
     inkscape:cx="118.8991"
     inkscape:cy="220.8897"
     inkscape:window-x="-8"
     inkscape:window-y="-8"
     inkscape:window-maximized="1"
     inkscape:current-layer="legend_1">
    <inkscape:grid
       type="xygrid"
       id="grid5407" />
  </sodipodi:namedview>
  <metadata
     id="metadata2">
    <rdf:RDF>
      <cc:Work>
        <dc:type
           rdf:resource="http://purl.org/dc/dcmitype/StillImage" />
        <dc:date>2022-12-24T14:59:34.497962</dc:date>
        <dc:format>image/svg+xml</dc:format>
        <dc:creator>
          <cc:Agent>
            <dc:title>Matplotlib v3.5.2, https://matplotlib.org/</dc:title>
          </cc:Agent>
        </dc:creator>
        <dc:title></dc:title>
      </cc:Work>
    </rdf:RDF>
  </metadata>
  <defs
     id="defs6">
    <style
       type="text/css"
       id="style4">*{stroke-linejoin: round; stroke-linecap: butt}</style>
  </defs>
  <g
     id="figure_1">
    <g
       id="patch_1">
      <path
         d="M 0 382.717344  L 732.967187 382.717344  L 732.967187 0  L 0 0  z "
         style="fill: #ffffff"
         id="path8" />
    </g>
    <g
       id="axes_1">
      <g
         id="patch_2">
        <path
           d="M 49.804688 343.639219  L 719.404688 343.639219  L 719.404688 10.999219  L 49.804688 10.999219  z "
           style="fill: #ffffff"
           id="path11" />
      </g>
      <g
         id="line2d_1">
        <path
           d="M 49.804688 47.959219  L 55.907812 47.848262  L 61.901953 47.518257  L 67.637256 46.982189  L 72.963867 46.264542  L 77.691064 45.409031  L 81.573633 44.490169  L 84.039404 43.704123  L 86.082861 42.971914  L 88.943701 42.258143  L 92.581055 41.584842  L 96.817822 41.030708  L 101.599512 40.632843  L 106.9125 40.417036  L 112.756787 40.405093  L 119.159619 40.617687  L 126.120996 41.074152  L 133.681787 41.795559  L 141.869238 42.803053  L 150.710596 44.117898  L 160.246729 45.763868  L 170.504883 47.76306  L 181.525928 50.140428  L 193.337109 52.918405  L 205.99292 56.126249  L 219.520605 59.787137  L 233.961035 63.927814  L 249.368701 68.579636  L 265.784473 73.770639  L 283.249219 79.529051  L 301.803809 85.883248  L 321.502734 92.866624  L 342.400488 100.513255  L 364.537939 108.852596  L 387.96958 117.919385  L 412.736279 127.743349  L 438.906152 138.365288  L 466.520068 149.815418  L 495.646143 162.135419  L 526.325244 175.355807  L 558.625488 189.518932  L 592.601367 204.661595  L 628.307373 220.820722  L 665.811621 238.039644  L 705.168604 256.355728  L 719.404687 263.038764  L 719.404687 263.038764  "
           clip-path="url(#p87ab0cf9ed)"
           style="fill: none; stroke-dasharray: 5.55,2.4; stroke-dashoffset: 0; stroke: #ffb8b8; stroke-width: 1.5"
           id="path14" />
      </g>
      <g
         id="line2d_2">
        <path
           d="M 49.804688 47.959219  L 55.907812 47.848262  L 61.901953 47.518257  L 67.637256 46.982189  L 72.963867 46.264542  L 77.691064 45.409031  L 81.573633 44.490169  L 84.339111 43.621723  L 86.832129 42.872843  L 90.033545 42.162741  L 93.916113 41.534421  L 98.37085 41.042948  L 103.356885 40.71997  L 108.874219 40.58859  L 114.936475 40.670083  L 121.557275 40.984941  L 128.750244 41.552605  L 136.55625 42.394727  L 145.002539 43.53271  L 154.116357 44.987994  L 163.938574 46.784614  L 174.496436 48.94472  L 185.830811 51.493419  L 197.982568 54.456578  L 210.992578 57.860678  L 224.888086 61.72879  L 239.723584 66.091765  L 255.539941 70.977317  L 272.39165 76.41789  L 290.305957 82.437493  L 309.350977 89.074044  L 329.553955 96.351871  L 350.983008 104.310086  L 373.679004 112.978396  L 397.682812 122.386417  L 423.062549 132.574739  L 449.859082 143.573517  L 478.140527 155.424273  L 507.947754 168.157496  L 539.348877 181.815418  L 572.398389 196.434788  L 607.150781 212.052494  L 643.67417 228.711798  L 682.023047 246.450048  L 719.404687 263.962375  L 719.404687 263.962375  "
           clip-path="url(#p87ab0cf9ed)"
           style="fill: none; stroke-dasharray: 5.55,2.4; stroke-dashoffset: 0; stroke: #b8b8ff; stroke-width: 1.5"
           id="path17" />
      </g>
      <g
         id="line2d_3">
        <path
           d="M 49.804688 47.959219  L 55.907812 47.848257  L 61.901953 47.518234  L 67.637256 46.98213  L 72.963867 46.264409  L 77.691064 45.408724  L 81.573633 44.489139  L 83.916797 43.734652  L 86.573291 42.783429  L 89.502246 42.078249  L 93.221338 41.415376  L 97.539844 40.876046  L 102.403271 40.496909  L 107.797998 40.303311  L 113.724023 40.316625  L 120.194971 40.556477  L 127.238086 41.042827  L 134.880615 41.796237  L 143.149805 42.837587  L 152.086523 44.190122  L 161.704395 45.873296  L 172.05791 47.913724  L 183.174316 50.333929  L 195.094482 53.159486  L 207.845654 56.413041  L 221.482324 60.124512  L 236.045361 64.321146  L 251.575635 69.030526  L 268.114014 74.280506  L 285.701367 80.099152  L 304.392187 86.519453  L 324.227344 93.570239  L 345.261328 101.28545  L 367.53501 109.694406  L 391.102881 118.831731  L 416.019434 128.732516  L 442.33916 139.432245  L 470.116553 150.966735  L 499.406104 163.372085  L 530.248682 176.6787  L 562.712402 190.928843  L 596.865381 206.165351  L 632.748486 222.41913  L 670.429834 239.733428  L 709.977539 258.151919  L 719.404687 262.577199  L 719.404687 262.577199  "
           clip-path="url(#p87ab0cf9ed)"
           style="fill: none; stroke: #ffa3a3; stroke-width: 1.5; stroke-linecap: square"
           id="path20" />
      </g>
      <g
         id="line2d_4">
        <path
           d="M 49.804688 47.959219  L 55.907812 47.848257  L 61.901953 47.518234  L 67.637256 46.98213  L 72.963867 46.264409  L 77.691064 45.408724  L 81.573633 44.489333  L 85.04751 43.427654  L 87.90835 42.669689  L 91.39585 41.986503  L 95.51001 41.411433  L 100.182715 40.98698  L 105.386719 40.74146  L 111.122021 40.697073  L 117.402246 40.874187  L 124.241016 41.29234  L 131.679199 41.972944  L 139.73042 42.935714  L 148.435547 44.203377  L 157.821826 45.797578  L 167.930127 47.742626  L 178.801318 50.063804  L 190.462646 52.783869  L 202.95498 55.928765  L 216.319189 59.525022  L 230.596143 63.599635  L 245.840332 68.184172  L 262.079004 73.302488  L 279.36665 78.987024  L 297.744141 85.266352  L 317.265967 92.174033  L 337.972998 99.739245  L 359.919727 107.996351  L 383.160645 116.980237  L 407.736621 126.720768  L 433.715771 137.258862  L 461.138965 148.624848  L 490.060693 160.85469  L 520.549072 173.990521  L 552.658594 188.069069  L 586.44375 203.127208  L 621.959033 219.201935  L 659.272559 236.336641  L 698.438818 254.56875  L 719.404687 264.42442  L 719.404687 264.42442  "
           clip-path="url(#p87ab0cf9ed)"
           style="fill: none; stroke: #a3a3ff; stroke-width: 1.5; stroke-linecap: square"
           id="path23" />
      </g>
      <g
         id="line2d_5">
        <path
           d="M 49.804688 47.959219  L 55.907812 47.848236  L 61.901953 47.518144  L 67.637256 46.981893  L 72.963867 46.263876  L 77.691064 45.407481  L 81.478271 44.50704  L 83.739697 43.76298  L 87.390674 42.466522  L 90.265137 41.798336  L 94.052344 41.149285  L 98.452588 40.625003  L 103.384131 40.264826  L 108.846973 40.091865  L 114.854736 40.127556  L 121.407422 40.391887  L 128.532275 40.904536  L 136.270166 41.687368  L 144.634717 42.76017  L 153.653174 44.143675  L 163.366406 45.861243  L 173.815283 47.937386  L 185.027051 50.394413  L 197.042578 53.257729  L 209.902734 56.553421  L 223.648389 60.308125  L 238.32041 64.54892  L 253.959668 69.303245  L 270.607031 74.598821  L 288.316992 80.468194  L 307.13042 86.939987  L 327.088184 94.042905  L 348.244775 101.810781  L 370.654687 110.27805  L 394.358789 119.4743  L 419.411572 129.434523  L 445.867529 140.19411  L 473.767529 151.783078  L 503.179688 164.242947  L 534.158496 177.609997  L 566.758447 191.920713  L 601.034033 207.21175  L 637.053369 223.526118  L 674.870947 240.900989  L 714.554883 259.379992  L 719.404687 261.654549  L 719.404687 261.654549  "
           clip-path="url(#p87ab0cf9ed)"
           style="fill: none; stroke-dasharray: 5.55,2.4; stroke-dashoffset: 0; stroke: #ff8f8f; stroke-width: 1.5"
           id="path26" />
      </g>
      <g
         id="line2d_6">
        <path
           d="M 49.804688 47.959219  L 55.907812 47.848236  L 61.901953 47.518144  L 67.637256 46.981893  L 72.963867 46.263876  L 77.691064 45.407498  L 81.628125 44.47567  L 89.679346 42.427733  L 93.548291 41.808101  L 97.989404 41.325803  L 102.975439 41.011922  L 108.492773 40.891256  L 114.541406 40.98455  L 121.148584 41.311771  L 128.341553 41.893687  L 136.147559 42.751472  L 144.593848 43.906471  L 153.707666 45.380067  L 163.529883 47.196266  L 174.101367 49.380117  L 185.449365 51.954281  L 197.614746 54.944549  L 210.638379 58.37733  L 224.561133 62.27953  L 239.4375 66.682585  L 255.294727 71.610374  L 272.187305 77.095245  L 290.156104 83.165756  L 309.255615 89.855413  L 329.526709 97.1934  L 351.023877 105.214051  L 373.787988 113.946939  L 397.887158 123.432412  L 423.362256 133.70064  L 450.267773 144.787303  L 478.658203 156.728386  L 508.60166 169.566019  L 540.139014 183.330965  L 573.338379 198.065932  L 608.254248 213.807962  L 644.954736 230.600469  L 683.494336 248.480923  L 719.404687 265.348989  L 719.404687 265.348989  "
           clip-path="url(#p87ab0cf9ed)"
           style="fill: none; stroke-dasharray: 5.55,2.4; stroke-dashoffset: 0; stroke: #8f8fff; stroke-width: 1.5"
           id="path29" />
      </g>
      <g
         id="line2d_7">
        <path
           d="M 49.804688 47.959219  L 55.907812 47.848152  L 61.901953 47.51778  L 67.637256 46.980946  L 72.950244 46.263862  L 77.609326 45.417348  L 81.015088 44.589495  L 83.576221 43.737809  L 88.589502 41.986088  L 91.39585 41.333424  L 95.087695 40.713869  L 99.515186 40.199998  L 104.514844 39.846968  L 110.045801 39.682565  L 116.12168 39.727816  L 122.74248 40.002389  L 129.949072 40.526931  L 137.755078 41.321114  L 146.187744 42.405333  L 155.287939 43.802431  L 165.08291 45.53401  L 175.599902 47.621568  L 186.893408 50.092688  L 198.990674 52.970085  L 211.932568 56.279727  L 225.746338 60.044326  L 240.486475 64.294273  L 256.193848 69.05696  L 272.909326 74.360071  L 290.673779 80.231521  L 309.541699 86.70416  L 329.553955 93.806698  L 350.765039 101.572963  L 373.21582 110.032181  L 396.960791 119.218886  L 422.04082 129.162622  L 448.524023 139.904023  L 476.45127 151.473157  L 505.877051 163.905751  L 536.869482 177.243721  L 569.469434 191.517584  L 603.74502 206.769865  L 639.750732 223.037415  L 677.541064 240.3572  L 717.184131 258.772647  L 719.404687 259.811174  L 719.404687 259.811174  "
           clip-path="url(#p87ab0cf9ed)"
           style="fill: none; stroke: #ff7a7a; stroke-width: 1.5; stroke-linecap: square"
           id="path32" />
      </g>
      <g
         id="line2d_8">
        <path
           d="M 49.804688 47.959219  L 55.907812 47.848152  L 61.901953 47.51778  L 67.637256 46.980946  L 72.950244 46.263891  L 77.691064 45.40466  L 82.404639 44.315817  L 88.603125 42.893152  L 92.581055 42.239016  L 96.967676 41.748201  L 101.871973 41.426966  L 107.307568 41.297015  L 113.288086 41.379827  L 119.827148 41.696117  L 126.938379 42.265522  L 134.662646 43.109901  L 143.027197 44.250828  L 152.059277 45.709886  L 161.799756 47.511255  L 172.289502 49.680144  L 183.555762 52.239349  L 195.639404 55.214784  L 208.594922 58.63668  L 222.449561 62.528769  L 237.244189 66.918398  L 253.033301 71.837565  L 269.857764 77.314726  L 287.758447 83.378464  L 306.789844 90.062318  L 327.006445 97.400513  L 348.449121 105.42268  L 371.172363 114.163685  L 395.230664 123.658846  L 420.664893 133.938292  L 447.543164 145.043368  L 475.919971 157.010376  L 505.849805 169.875837  L 537.387158 183.676456  L 570.586523 198.44909  L 605.516016 214.23692  L 642.24375 231.083583  L 680.824219 249.026736  L 719.404687 267.200043  L 719.404687 267.200043  "
           clip-path="url(#p87ab0cf9ed)"
           style="fill: none; stroke: #7a7aff; stroke-width: 1.5; stroke-linecap: square"
           id="path35" />
      </g>
      <g
         id="line2d_9">
        <path
           d="M 49.804688 47.959219  L 55.894189 47.848315  L 61.874707 47.518342  L 67.582764 46.983245  L 72.786768 46.27704  L 76.95542 45.498484  L 80.184082 44.675231  L 83.467236 43.595943  L 90.319629 41.272118  L 93.412061 40.521445  L 96.899561 39.911619  L 101.095459 39.410927  L 106.027002 39.051421  L 111.571582 38.873448  L 117.68833 38.902802  L 124.363623 39.160368  L 131.611084 39.665394  L 139.457959 40.437784  L 147.931494 41.497882  L 157.072559 42.868466  L 166.894775 44.568632  L 177.452637 46.624622  L 188.759766 49.055622  L 200.870654 51.889499  L 213.812549 55.148757  L 227.626318 58.859343  L 242.352832 63.047734  L 258.032959 67.740843  L 274.707568 72.965932  L 292.431152 78.755087  L 311.24458 85.136587  L 331.188721 92.138839  L 352.304443 99.790348  L 374.64624 108.124844  L 398.268604 117.176637  L 423.212402 126.97513  L 449.532129 137.555198  L 477.268652 148.946465  L 506.490088 161.189979  L 537.250928 174.321664  L 569.592041 188.37172  L 603.581543 203.382299  L 639.273926 219.389966  L 676.723682 236.431432  L 715.985303 254.543529  L 719.404687 256.132146  L 719.404687 256.132146  "
           clip-path="url(#p87ab0cf9ed)"
           style="fill: none; stroke-dasharray: 5.55,2.4; stroke-dashoffset: 0; stroke: #ff6666; stroke-width: 1.5"
           id="path38" />
      </g>
      <g
         id="line2d_10">
        <path
           d="M 49.804688 47.959219  L 55.894189 47.848315  L 61.874707 47.518342  L 67.596387 46.981876  L 72.950244 46.259289  L 78.453955 45.285579  L 89.78833 43.200154  L 94.461035 42.635637  L 99.31084 42.276647  L 104.596582 42.112202  L 110.386377 42.157875  L 116.734717 42.433689  L 123.655225 42.959994  L 131.18877 43.759122  L 139.348975 44.851144  L 148.190332 46.26175  L 157.726465 48.011204  L 168.011865 50.127124  L 179.073779 52.632683  L 190.953076 55.554113  L 203.690625 58.918218  L 217.327295 62.752252  L 231.917578 67.087978  L 247.502344 71.953882  L 264.122461 77.378596  L 281.818799 83.390856  L 300.659473 90.029228  L 320.685352 97.323502  L 341.937305 105.303387  L 364.483447 114.009156  L 388.364648 123.471138  L 413.6354 133.725071  L 440.363818 144.812715  L 468.590771 156.764901  L 498.384375 169.624072  L 529.799121 183.427229  L 562.903125 198.217624  L 597.750879 214.032752  L 634.396875 230.910152  L 672.922852 248.900201  L 713.383301 268.040977  L 719.404687 270.909787  L 719.404687 270.909787  "
           clip-path="url(#p87ab0cf9ed)"
           style="fill: none; stroke-dasharray: 5.55,2.4; stroke-dashoffset: 0; stroke: #6666ff; stroke-width: 1.5"
           id="path41" />
      </g>
      <g
         id="line2d_11">
        <path
           d="M 49.804688 47.959219  L 55.866943 47.847956  L 61.779346 47.518745  L 67.174072 47.001231  L 71.642432 46.357094  L 75.416016 45.592344  L 79.094238 44.615934  L 83.671582 43.151455  L 92.485693 40.296391  L 96.477246 39.273554  L 100.332568 38.516022  L 104.419482 37.942729  L 108.983203 37.531633  L 114.173584 37.292127  L 120.045117 37.247893  L 126.58418 37.424264  L 133.763525 37.843125  L 141.569531 38.52385  L 150.01582 39.486394  L 159.116016 40.750126  L 168.897363 42.335841  L 179.387109 44.264473  L 190.6125 46.556975  L 202.614404 49.237416  L 215.433691 52.330733  L 229.097607 55.858954  L 243.660645 59.851518  L 259.150049 64.331143  L 275.606689 69.324407  L 293.071436 74.858264  L 311.585156 80.959984  L 331.202344 87.661821  L 351.950244 94.987076  L 373.88335 102.968651  L 397.056152 111.640132  L 421.509521 121.030397  L 447.284326 131.168334  L 474.435059 142.088362  L 503.016211 153.825341  L 533.082275 166.414504  L 564.674121 179.88555  L 597.84624 194.274021  L 632.666748 209.621774  L 669.176514 225.958972  L 707.443652 243.328058  L 719.404687 248.805148  L 719.404687 248.805148  "
           clip-path="url(#p87ab0cf9ed)"
           style="fill: none; stroke: #ff5252; stroke-width: 1.5; stroke-linecap: square"
           id="path44" />
      </g>
      <g
         id="line2d_12">
        <path
           d="M 49.804688 47.959219  L 55.866943 47.847963  L 61.820215 47.517259  L 67.759863 46.963323  L 74.816602 46.066668  L 87.145459 44.475957  L 92.9625 43.983236  L 98.547949 43.73401  L 104.283252 43.702447  L 110.372754 43.893709  L 116.939062 44.325258  L 124.063916 45.019474  L 131.801807 46.00004  L 140.193604 47.290681  L 149.280176 48.916107  L 159.102393 50.901958  L 169.701123 53.274656  L 181.117236 56.061244  L 193.391602 59.289248  L 206.565088 62.986563  L 220.678564 67.181367  L 235.786523 71.906408  L 251.929834 77.190804  L 269.162988 83.068446  L 287.540479 89.573922  L 307.103174 96.737327  L 327.905566 104.593847  L 350.002148 113.179109  L 373.461035 122.534609  L 398.323096 132.691405  L 424.656445 143.691776  L 452.515576 155.572805  L 481.95498 168.371703  L 513.042773 182.131866  L 545.833447 196.890984  L 580.40874 212.699327  L 616.823145 229.595167  L 655.131152 247.616728  L 695.414502 266.815246  L 719.404687 278.359661  L 719.404687 278.359661  "
           clip-path="url(#p87ab0cf9ed)"
           style="fill: none; stroke: #5252ff; stroke-width: 1.5; stroke-linecap: square"
           id="path47" />
      </g>
      <g
         id="line2d_13">
        <path
           d="M 49.804688 47.959219  L 55.608105 47.848225  L 60.621387 47.537969  L 64.939893 47.051873  L 68.972314 46.374192  L 73.127344 45.44596  L 77.963525 44.126816  L 85.49707 41.806175  L 94.856104 38.978415  L 100.577783 37.48797  L 105.713672 36.378093  L 110.672461 35.533389  L 115.685742 34.905678  L 120.916992 34.476618  L 126.502441 34.244096  L 132.564697 34.217157  L 139.212744 34.413445  L 146.514697 34.855058  L 154.511426 35.564557  L 163.243799 36.565747  L 172.711816 37.878155  L 182.915479 39.51962  L 193.882031 41.511745  L 205.611475 43.871012  L 218.131055 46.618471  L 231.468018 49.775392  L 245.649609 53.363092  L 260.716699 57.406593  L 276.696533 61.927627  L 293.62998 66.951862  L 311.544287 72.501155  L 330.493945 78.606052  L 350.519824 85.293489  L 371.64917 92.585908  L 393.936475 100.515252  L 417.422607 109.109188  L 442.148438 118.395537  L 468.154834 128.402253  L 495.496289 139.162811  L 524.213672 150.705685  L 554.361475 163.065021  L 585.980566 176.269658  L 619.125439 190.354255  L 653.850586 205.353826  L 690.196875 221.297673  L 719.404687 234.276838  L 719.404687 234.276838  "
           clip-path="url(#p87ab0cf9ed)"
           style="fill: none; stroke-dasharray: 5.55,2.4; stroke-dashoffset: 0; stroke: #ff3d3d; stroke-width: 1.5"
           id="path50" />
      </g>
      <g
         id="line2d_14">
        <path
           d="M 49.804688 47.959219  L 55.826074 47.848106  L 63.14165 47.47551  L 81.587256 46.441425  L 88.725732 46.326534  L 95.523633 46.439173  L 102.335156 46.775238  L 109.351025 47.345489  L 116.707471 48.16835  L 124.5271 49.269329  L 132.89165 50.67435  L 141.882861 52.41279  L 151.582471 54.517549  L 162.058594 57.021545  L 173.3521 59.952457  L 185.531104 63.345754  L 198.650098 67.234726  L 212.749951 71.649131  L 227.898779 76.627794  L 244.137451 82.201464  L 261.520459 88.405623  L 280.115918 95.281349  L 299.964697 102.860182  L 321.134912 111.184174  L 343.681055 120.290621  L 367.67124 130.222671  L 393.159961 141.018253  L 420.215332 152.721286  L 448.905469 165.376154  L 479.284863 179.021465  L 511.435254 193.708289  L 545.411133 209.475649  L 581.294238 226.375347  L 619.166309 244.459741  L 659.081836 263.768411  L 701.122559 284.354134  L 719.404687 293.379695  L 719.404687 293.379695  "
           clip-path="url(#p87ab0cf9ed)"
           style="fill: none; stroke-dasharray: 5.55,2.4; stroke-dashoffset: 0; stroke: #3d3dff; stroke-width: 1.5"
           id="path53" />
      </g>
      <g
         id="line2d_15">
        <path
           d="M 49.804688 47.959219  L 55.035938 47.848256  L 59.354443 47.537896  L 63.386865 47.025062  L 67.487402 46.276008  L 72.0375 45.211779  L 77.745557 43.634667  L 101.912842 36.69144  L 107.920605 35.346409  L 113.601416 34.300973  L 119.186865 33.4986  L 124.84043 32.911734  L 130.684717 32.530261  L 136.828711 32.354223  L 143.381396 32.391637  L 150.438135 32.657413  L 158.080664 33.170951  L 166.3771 33.954242  L 175.395557 35.032184  L 185.163281 36.426606  L 195.70752 38.15922  L 207.055518 40.252047  L 219.207275 42.72175  L 232.190039 45.589741  L 246.017432 48.87447  L 260.716699 52.597323  L 276.301465 56.776063  L 292.812598 61.435591  L 310.277344 66.597397  L 328.736572 72.287129  L 348.217529 78.526492  L 368.774707 85.346169  L 390.435352 92.768327  L 413.240332 100.819728  L 437.230518 109.527402  L 462.446777 118.918602  L 488.92998 129.020771  L 516.734619 139.866878  L 545.901562 151.484986  L 576.47168 163.903234  L 608.499463 177.155515  L 642.025781 191.270373  L 677.091504 206.276362  L 713.751123 222.208011  L 719.404687 224.685792  L 719.404687 224.685792  "
           clip-path="url(#p87ab0cf9ed)"
           style="fill: none; stroke: #ff2929; stroke-width: 1.5; stroke-linecap: square"
           id="path56" />
      </g>
      <g
         id="line2d_16">
        <path
           d="M 49.804688 47.959219  L 56.47998 47.848079  L 75.620361 47.421181  L 83.317383 47.537058  L 90.673828 47.870092  L 98.030273 48.426527  L 105.563818 49.220975  L 113.39707 50.272656  L 121.639014 51.60594  L 130.38501 53.248683  L 139.716797 55.230331  L 149.729736 57.586841  L 160.491943 60.35102  L 172.085156 63.561212  L 184.57749 67.25419  L 198.023438 71.463783  L 212.504736 76.233474  L 228.075879 81.599258  L 244.791357 87.59745  L 262.719287 94.269817  L 281.91416 101.65372  L 302.444092 109.792154  L 324.363574 118.723192  L 347.754346 128.496464  L 372.670898 139.150868  L 399.181348 150.731219  L 427.353809 163.282697  L 457.256396 176.850776  L 488.97085 191.48751  L 522.565283 207.239104  L 558.121436 224.158413  L 595.707422 242.292126  L 635.40498 261.693673  L 677.29585 282.416829  L 719.404687 303.481044  L 719.404687 303.481044  "
           clip-path="url(#p87ab0cf9ed)"
           style="fill: none; stroke: #2929ff; stroke-width: 1.5; stroke-linecap: square"
           id="path59" />
      </g>
      <g
         id="line2d_17">
        <path
           d="M 49.804688 47.959219  L 53.16958 47.848069  L 56.670703 47.507081  L 60.498779 46.905889  L 64.939893 45.975195  L 70.511719 44.567909  L 78.917139 42.189096  L 96.504492 37.182331  L 104.841797 35.069582  L 112.307227 33.404507  L 119.350342 32.059872  L 126.175488 30.982229  L 132.918896 30.141954  L 139.689551 29.522169  L 146.582812 29.11497  L 153.68042 28.919618  L 161.064111 28.940642  L 168.802002 29.186981  L 176.97583 29.671773  L 185.667334 30.412551  L 194.944629 31.42922  L 204.862207 32.742245  L 215.501807 34.377877  L 226.904297 36.358468  L 239.110547 38.70679  L 252.175049 41.449255  L 266.111426 44.604394  L 280.946924 48.193297  L 296.708789 52.237211  L 313.424268 56.757559  L 331.106982 61.771966  L 349.78418 67.301607  L 369.483105 73.367741  L 390.231006 79.991656  L 412.055127 87.19461  L 434.982715 94.9978  L 459.054639 103.427158  L 484.311768 112.509007  L 510.781348 122.26491  L 538.504248 132.721433  L 567.534961 143.910701  L 597.900732 155.854657  L 629.642432 168.580506  L 662.800928 182.115608  L 697.430713 196.493159  L 719.404687 205.735487  L 719.404687 205.735487  "
           clip-path="url(#p87ab0cf9ed)"
           style="fill: none; stroke-dasharray: 5.55,2.4; stroke-dashoffset: 0; stroke: #ff1414; stroke-width: 1.5"
           id="path62" />
      </g>
      <g
         id="line2d_18">
        <path
           d="M 49.804688 47.959219  L 57.297363 48.070147  L 64.844531 48.404493  L 72.500684 48.966898  L 80.320312 49.764973  L 88.385156 50.813042  L 96.736084 52.123947  L 105.454834 53.719298  L 114.609521 55.622341  L 124.281885 57.862433  L 134.540039 60.468924  L 145.465723 63.477015  L 157.140674 66.92464  L 169.660254 70.856479  L 183.092578 75.310898  L 197.533008 80.33677  L 213.063281 85.980292  L 229.765137 92.28897  L 247.733936 99.3169  L 267.037793 107.108733  L 287.758447 115.715114  L 309.977637 125.18752  L 333.7771 135.578162  L 359.224951 146.933742  L 386.416553 159.313547  L 415.433643 172.771438  L 446.357959 187.361658  L 479.27124 203.138762  L 514.255225 220.157559  L 551.405273 238.479826  L 590.803125 258.160995  L 632.544141 279.263523  L 676.737305 301.857243  L 719.404687 323.891454  L 719.404687 323.891454  "
           clip-path="url(#p87ab0cf9ed)"
           style="fill: none; stroke-dasharray: 5.55,2.4; stroke-dashoffset: 0; stroke: #1414ff; stroke-width: 1.5"
           id="path65" />
      </g>
      <g
         id="line2d_19">
        <path
           d="M 49.804688 47.959219  L 62.188037 43.975016  L 74.067334 40.384656  L 85.510693 37.156835  L 96.572607 34.266306  L 107.307568 31.689661  L 117.783691 29.402801  L 128.041846 27.390281  L 138.136523 25.635873  L 148.108594 24.128086  L 157.998926 22.857168  L 167.848389 21.815211  L 177.711475 20.995235  L 187.629053 20.394107  L 197.628369 20.010992  L 207.763916 19.845618  L 218.076562 19.900526  L 228.593555 20.179513  L 239.369385 20.688474  L 250.458545 21.43598  L 261.888281 22.430444  L 273.713086 23.683652  L 285.987451 25.209562  L 298.752246 27.022044  L 312.061963 29.13812  L 325.971094 31.576469  L 340.520508 34.354566  L 355.764697 37.493361  L 371.771777 41.018196  L 388.568994 44.946518  L 406.224463 49.305807  L 424.779053 54.118087  L 444.273633 59.40575  L 464.762695 65.195518  L 486.273486 71.506977  L 508.846875 78.363775  L 532.52373 85.790016  L 557.331299 93.805803  L 583.296826 102.431207  L 610.447559 111.686305  L 638.810742 121.5912  L 668.427246 132.170955  L 699.310693 143.441039  L 719.404687 150.895274  L 719.404687 150.895274  "
           clip-path="url(#p87ab0cf9ed)"
           style="fill: none; stroke: #ff0000; stroke-width: 1.5; stroke-linecap: square"
           id="path68" />
      </g>
      <g
         id="line2d_20">
        <path
           d="M 49.804688 47.959219  L 62.542236 52.294646  L 75.906445 57.080257  L 89.979053 62.358021  L 104.841797 68.172008  L 120.590039 74.573604  L 137.332764 81.622092  L 155.178955 89.379103  L 174.251221 97.914315  L 194.685791 107.305829  L 216.605273 117.627495  L 240.173145 128.974265  L 265.525635 141.430067  L 292.839844 155.100516  L 322.279248 170.086418  L 354.007324 186.48995  L 388.214795 204.428803  L 425.065137 224.007775  L 464.749072 245.347123  L 507.443701 268.560909  L 553.339746 293.771488  L 602.614307 321.094561  L 655.444482 350.64637  L 712.034619 382.559049  L 714.080515 383.717344  L 714.080515 383.717344  "
           clip-path="url(#p87ab0cf9ed)"
           style="fill: none; stroke: #0000ff; stroke-width: 1.5; stroke-linecap: square"
           id="path71" />
      </g>
      <g
         id="line2d_21">
        <path
           d="M 49.804688 47.959219  L 55.921436 48.070104  L 62.092676 48.404958  L 68.359277 48.968828  L 74.775732 49.770902  L 81.396533 50.824184  L 88.289795 52.147895  L 95.523633 53.765815  L 103.166162 55.705534  L 111.299121 58.001699  L 120.017871 60.697032  L 129.431396 63.843053  L 139.648682 67.495536  L 150.805957 71.723973  L 163.039453 76.602104  L 176.499023 82.21257  L 191.361768 88.653138  L 207.791162 96.019258  L 225.964307 104.415072  L 246.071924 113.953792  L 268.27749 124.737971  L 292.758105 136.878249  L 319.677246 150.480021  L 349.171143 165.63567  L 381.389648 182.444935  L 416.482617 201.008191  L 454.572656 221.411693  L 495.809619 243.756344  L 540.343359 268.143459  L 588.310107 294.667084  L 639.87334 323.436459  L 695.196533 354.561203  L 719.404687 368.255799  L 719.404687 368.255799  "
           clip-path="url(#p87ab0cf9ed)"
           style="fill: none; stroke: #333333; stroke-width: 1.5; stroke-linecap: square"
           id="path74" />
      </g>
      <g
         id="matplotlib.axis_1">
        <g
           id="xtick_1">
          <g
             id="line2d_22">
            <defs
               id="defs78">
              <path
                 id="mc46b872ab1"
                 d="M 0 0  L 0 3.5  "
                 style="stroke: #000000; stroke-width: 0.8" />
            </defs>
            <g
               id="g82">
              <use
                 xlink:href="#mc46b872ab1"
                 x="49.804688"
                 y="343.639219"
                 style="stroke: #000000; stroke-width: 0.8"
                 id="use80" />
            </g>
          </g>
          <g
             id="text_1">
            <!-- 0 -->
            <g
               transform="translate(46.623438 358.237656)scale(0.1 -0.1)"
               id="g90">
              <defs
                 id="defs86">
                <path
                   id="DejaVuSans-30"
                   d="M 2034 4250  Q 1547 4250 1301 3770  Q 1056 3291 1056 2328  Q 1056 1369 1301 889  Q 1547 409 2034 409  Q 2525 409 2770 889  Q 3016 1369 3016 2328  Q 3016 3291 2770 3770  Q 2525 4250 2034 4250  z M 2034 4750  Q 2819 4750 3233 4129  Q 3647 3509 3647 2328  Q 3647 1150 3233 529  Q 2819 -91 2034 -91  Q 1250 -91 836 529  Q 422 1150 422 2328  Q 422 3509 836 4129  Q 1250 4750 2034 4750  z "
                   transform="scale(0.015625)" />
              </defs>
              <use
                 xlink:href="#DejaVuSans-30"
                 id="use88" />
            </g>
          </g>
        </g>
        <g
           id="xtick_2">
          <g
             id="line2d_23">
            <g
               id="g96">
              <use
                 xlink:href="#mc46b872ab1"
                 x="161.404687"
                 y="343.639219"
                 style="stroke: #000000; stroke-width: 0.8"
                 id="use94" />
            </g>
          </g>
          <g
             id="text_2">
            <!-- 2 -->
            <g
               transform="translate(158.223437 358.237656)scale(0.1 -0.1)"
               id="g104">
              <defs
                 id="defs100">
                <path
                   id="DejaVuSans-32"
                   d="M 1228 531  L 3431 531  L 3431 0  L 469 0  L 469 531  Q 828 903 1448 1529  Q 2069 2156 2228 2338  Q 2531 2678 2651 2914  Q 2772 3150 2772 3378  Q 2772 3750 2511 3984  Q 2250 4219 1831 4219  Q 1534 4219 1204 4116  Q 875 4013 500 3803  L 500 4441  Q 881 4594 1212 4672  Q 1544 4750 1819 4750  Q 2544 4750 2975 4387  Q 3406 4025 3406 3419  Q 3406 3131 3298 2873  Q 3191 2616 2906 2266  Q 2828 2175 2409 1742  Q 1991 1309 1228 531  z "
                   transform="scale(0.015625)" />
              </defs>
              <use
                 xlink:href="#DejaVuSans-32"
                 id="use102" />
            </g>
          </g>
        </g>
        <g
           id="xtick_3">
          <g
             id="line2d_24">
            <g
               id="g110">
              <use
                 xlink:href="#mc46b872ab1"
                 x="273.004687"
                 y="343.639219"
                 style="stroke: #000000; stroke-width: 0.8"
                 id="use108" />
            </g>
          </g>
          <g
             id="text_3">
            <!-- 4 -->
            <g
               transform="translate(269.823438 358.237656)scale(0.1 -0.1)"
               id="g118">
              <defs
                 id="defs114">
                <path
                   id="DejaVuSans-34"
                   d="M 2419 4116  L 825 1625  L 2419 1625  L 2419 4116  z M 2253 4666  L 3047 4666  L 3047 1625  L 3713 1625  L 3713 1100  L 3047 1100  L 3047 0  L 2419 0  L 2419 1100  L 313 1100  L 313 1709  L 2253 4666  z "
                   transform="scale(0.015625)" />
              </defs>
              <use
                 xlink:href="#DejaVuSans-34"
                 id="use116" />
            </g>
          </g>
        </g>
        <g
           id="xtick_4">
          <g
             id="line2d_25">
            <g
               id="g124">
              <use
                 xlink:href="#mc46b872ab1"
                 x="384.604687"
                 y="343.639219"
                 style="stroke: #000000; stroke-width: 0.8"
                 id="use122" />
            </g>
          </g>
          <g
             id="text_4">
            <!-- 6 -->
            <g
               transform="translate(381.423437 358.237656)scale(0.1 -0.1)"
               id="g132">
              <defs
                 id="defs128">
                <path
                   id="DejaVuSans-36"
                   d="M 2113 2584  Q 1688 2584 1439 2293  Q 1191 2003 1191 1497  Q 1191 994 1439 701  Q 1688 409 2113 409  Q 2538 409 2786 701  Q 3034 994 3034 1497  Q 3034 2003 2786 2293  Q 2538 2584 2113 2584  z M 3366 4563  L 3366 3988  Q 3128 4100 2886 4159  Q 2644 4219 2406 4219  Q 1781 4219 1451 3797  Q 1122 3375 1075 2522  Q 1259 2794 1537 2939  Q 1816 3084 2150 3084  Q 2853 3084 3261 2657  Q 3669 2231 3669 1497  Q 3669 778 3244 343  Q 2819 -91 2113 -91  Q 1303 -91 875 529  Q 447 1150 447 2328  Q 447 3434 972 4092  Q 1497 4750 2381 4750  Q 2619 4750 2861 4703  Q 3103 4656 3366 4563  z "
                   transform="scale(0.015625)" />
              </defs>
              <use
                 xlink:href="#DejaVuSans-36"
                 id="use130" />
            </g>
          </g>
        </g>
        <g
           id="xtick_5">
          <g
             id="line2d_26">
            <g
               id="g138">
              <use
                 xlink:href="#mc46b872ab1"
                 x="496.204687"
                 y="343.639219"
                 style="stroke: #000000; stroke-width: 0.8"
                 id="use136" />
            </g>
          </g>
          <g
             id="text_5">
            <!-- 8 -->
            <g
               transform="translate(493.023438 358.237656)scale(0.1 -0.1)"
               id="g146">
              <defs
                 id="defs142">
                <path
                   id="DejaVuSans-38"
                   d="M 2034 2216  Q 1584 2216 1326 1975  Q 1069 1734 1069 1313  Q 1069 891 1326 650  Q 1584 409 2034 409  Q 2484 409 2743 651  Q 3003 894 3003 1313  Q 3003 1734 2745 1975  Q 2488 2216 2034 2216  z M 1403 2484  Q 997 2584 770 2862  Q 544 3141 544 3541  Q 544 4100 942 4425  Q 1341 4750 2034 4750  Q 2731 4750 3128 4425  Q 3525 4100 3525 3541  Q 3525 3141 3298 2862  Q 3072 2584 2669 2484  Q 3125 2378 3379 2068  Q 3634 1759 3634 1313  Q 3634 634 3220 271  Q 2806 -91 2034 -91  Q 1263 -91 848 271  Q 434 634 434 1313  Q 434 1759 690 2068  Q 947 2378 1403 2484  z M 1172 3481  Q 1172 3119 1398 2916  Q 1625 2713 2034 2713  Q 2441 2713 2670 2916  Q 2900 3119 2900 3481  Q 2900 3844 2670 4047  Q 2441 4250 2034 4250  Q 1625 4250 1398 4047  Q 1172 3844 1172 3481  z "
                   transform="scale(0.015625)" />
              </defs>
              <use
                 xlink:href="#DejaVuSans-38"
                 id="use144" />
            </g>
          </g>
        </g>
        <g
           id="xtick_6">
          <g
             id="line2d_27">
            <g
               id="g152">
              <use
                 xlink:href="#mc46b872ab1"
                 x="607.804688"
                 y="343.639219"
                 style="stroke: #000000; stroke-width: 0.8"
                 id="use150" />
            </g>
          </g>
          <g
             id="text_6">
            <!-- 10 -->
            <g
               transform="translate(601.442188 358.237656)scale(0.1 -0.1)"
               id="g162">
              <defs
                 id="defs156">
                <path
                   id="DejaVuSans-31"
                   d="M 794 531  L 1825 531  L 1825 4091  L 703 3866  L 703 4441  L 1819 4666  L 2450 4666  L 2450 531  L 3481 531  L 3481 0  L 794 0  L 794 531  z "
                   transform="scale(0.015625)" />
              </defs>
              <use
                 xlink:href="#DejaVuSans-31"
                 id="use158" />
              <use
                 xlink:href="#DejaVuSans-30"
                 x="63.623047"
                 id="use160" />
            </g>
          </g>
        </g>
        <g
           id="xtick_7">
          <g
             id="line2d_28">
            <g
               id="g168">
              <use
                 xlink:href="#mc46b872ab1"
                 x="719.404687"
                 y="343.639219"
                 style="stroke: #000000; stroke-width: 0.8"
                 id="use166" />
            </g>
          </g>
          <g
             id="text_7">
            <!-- 12 -->
            <g
               transform="translate(713.042187 358.237656)scale(0.1 -0.1)"
               id="g175">
              <use
                 xlink:href="#DejaVuSans-31"
                 id="use171" />
              <use
                 xlink:href="#DejaVuSans-32"
                 x="63.623047"
                 id="use173" />
            </g>
          </g>
        </g>
        <g
           id="text_8">
          <!-- $q / max(1, n^2)$ -->
          <g
             transform="translate(353.404688 373.417344)scale(0.1 -0.1)"
             id="g212">
            <defs
               id="defs188">
              <path
                 id="DejaVuSans-Oblique-71"
                 d="M 2669 525  Q 2438 222 2123 65  Q 1809 -91 1428 -91  Q 897 -91 595 267  Q 294 625 294 1253  Q 294 1759 480 2231  Q 666 2703 1013 3078  Q 1238 3322 1530 3453  Q 1822 3584 2144 3584  Q 2531 3584 2781 3431  Q 3031 3278 3144 2969  L 3244 3494  L 3822 3494  L 2888 -1319  L 2309 -1319  L 2669 525  z M 891 1338  Q 891 875 1084 633  Q 1278 391 1644 391  Q 2188 391 2572 911  Q 2956 1431 2956 2175  Q 2956 2625 2757 2864  Q 2559 3103 2188 3103  Q 1916 3103 1684 2976  Q 1453 2850 1281 2606  Q 1100 2350 995 2006  Q 891 1663 891 1338  z "
                 transform="scale(0.015625)" />
              <path
                 id="DejaVuSans-2f"
                 d="M 1625 4666  L 2156 4666  L 531 -594  L 0 -594  L 1625 4666  z "
                 transform="scale(0.015625)" />
              <path
                 id="DejaVuSans-Oblique-6d"
                 d="M 5747 2113  L 5338 0  L 4763 0  L 5166 2094  Q 5191 2228 5203 2325  Q 5216 2422 5216 2491  Q 5216 2772 5059 2928  Q 4903 3084 4622 3084  Q 4203 3084 3875 2770  Q 3547 2456 3450 1953  L 3066 0  L 2491 0  L 2900 2094  Q 2925 2209 2937 2307  Q 2950 2406 2950 2484  Q 2950 2769 2794 2926  Q 2638 3084 2363 3084  Q 1938 3084 1609 2770  Q 1281 2456 1184 1953  L 800 0  L 225 0  L 909 3500  L 1484 3500  L 1375 2956  Q 1609 3263 1923 3423  Q 2238 3584 2597 3584  Q 2978 3584 3223 3384  Q 3469 3184 3519 2828  Q 3781 3197 4126 3390  Q 4472 3584 4856 3584  Q 5306 3584 5551 3325  Q 5797 3066 5797 2591  Q 5797 2488 5784 2364  Q 5772 2241 5747 2113  z "
                 transform="scale(0.015625)" />
              <path
                 id="DejaVuSans-Oblique-61"
                 d="M 3438 1997  L 3047 0  L 2472 0  L 2578 531  Q 2325 219 2001 64  Q 1678 -91 1281 -91  Q 834 -91 548 182  Q 263 456 263 884  Q 263 1497 752 1853  Q 1241 2209 2100 2209  L 2900 2209  L 2931 2363  Q 2938 2388 2941 2417  Q 2944 2447 2944 2509  Q 2944 2788 2717 2942  Q 2491 3097 2081 3097  Q 1800 3097 1504 3025  Q 1209 2953 897 2809  L 997 3341  Q 1322 3463 1633 3523  Q 1944 3584 2234 3584  Q 2853 3584 3176 3315  Q 3500 3047 3500 2534  Q 3500 2431 3484 2292  Q 3469 2153 3438 1997  z M 2816 1759  L 2241 1759  Q 1534 1759 1195 1570  Q 856 1381 856 984  Q 856 709 1029 553  Q 1203 397 1509 397  Q 1978 397 2328 733  Q 2678 1069 2791 1631  L 2816 1759  z "
                 transform="scale(0.015625)" />
              <path
                 id="DejaVuSans-Oblique-78"
                 d="M 3841 3500  L 2234 1784  L 3219 0  L 2559 0  L 1819 1388  L 531 0  L -166 0  L 1556 1844  L 641 3500  L 1300 3500  L 1972 2234  L 3144 3500  L 3841 3500  z "
                 transform="scale(0.015625)" />
              <path
                 id="DejaVuSans-28"
                 d="M 1984 4856  Q 1566 4138 1362 3434  Q 1159 2731 1159 2009  Q 1159 1288 1364 580  Q 1569 -128 1984 -844  L 1484 -844  Q 1016 -109 783 600  Q 550 1309 550 2009  Q 550 2706 781 3412  Q 1013 4119 1484 4856  L 1984 4856  z "
                 transform="scale(0.015625)" />
              <path
                 id="DejaVuSans-2c"
                 d="M 750 794  L 1409 794  L 1409 256  L 897 -744  L 494 -744  L 750 256  L 750 794  z "
                 transform="scale(0.015625)" />
              <path
                 id="DejaVuSans-Oblique-6e"
                 d="M 3566 2113  L 3156 0  L 2578 0  L 2988 2091  Q 3016 2238 3031 2350  Q 3047 2463 3047 2528  Q 3047 2791 2881 2937  Q 2716 3084 2419 3084  Q 1956 3084 1622 2776  Q 1288 2469 1184 1941  L 800 0  L 225 0  L 903 3500  L 1478 3500  L 1363 2950  Q 1603 3253 1940 3418  Q 2278 3584 2650 3584  Q 3113 3584 3367 3334  Q 3622 3084 3622 2631  Q 3622 2519 3608 2391  Q 3594 2263 3566 2113  z "
                 transform="scale(0.015625)" />
              <path
                 id="DejaVuSans-29"
                 d="M 513 4856  L 1013 4856  Q 1481 4119 1714 3412  Q 1947 2706 1947 2009  Q 1947 1309 1714 600  Q 1481 -109 1013 -844  L 513 -844  Q 928 -128 1133 580  Q 1338 1288 1338 2009  Q 1338 2731 1133 3434  Q 928 4138 513 4856  z "
                 transform="scale(0.015625)" />
            </defs>
            <use
               xlink:href="#DejaVuSans-Oblique-71"
               transform="translate(0 0.765625)"
               id="use190" />
            <use
               xlink:href="#DejaVuSans-2f"
               transform="translate(63.476562 0.765625)"
               id="use192" />
            <use
               xlink:href="#DejaVuSans-Oblique-6d"
               transform="translate(97.167969 0.765625)"
               id="use194" />
            <use
               xlink:href="#DejaVuSans-Oblique-61"
               transform="translate(194.580078 0.765625)"
               id="use196" />
            <use
               xlink:href="#DejaVuSans-Oblique-78"
               transform="translate(255.859375 0.765625)"
               id="use198" />
            <use
               xlink:href="#DejaVuSans-28"
               transform="translate(315.039062 0.765625)"
               id="use200" />
            <use
               xlink:href="#DejaVuSans-31"
               transform="translate(354.052734 0.765625)"
               id="use202" />
            <use
               xlink:href="#DejaVuSans-2c"
               transform="translate(417.675781 0.765625)"
               id="use204" />
            <use
               xlink:href="#DejaVuSans-Oblique-6e"
               transform="translate(468.945312 0.765625)"
               id="use206" />
            <use
               xlink:href="#DejaVuSans-32"
               transform="translate(536.974115 39.046875)scale(0.7)"
               id="use208" />
            <use
               xlink:href="#DejaVuSans-29"
               transform="translate(584.244622 0.765625)"
               id="use210" />
          </g>
        </g>
      </g>
      <g
         id="matplotlib.axis_2">
        <g
           id="ytick_1">
          <g
             id="line2d_29">
            <defs
               id="defs217">
              <path
                 id="mf8c52e26ee"
                 d="M 0 0  L -3.5 0  "
                 style="stroke: #000000; stroke-width: 0.8" />
            </defs>
            <g
               id="g221">
              <use
                 xlink:href="#mf8c52e26ee"
                 x="49.804688"
                 y="343.639219"
                 style="stroke: #000000; stroke-width: 0.8"
                 id="use219" />
            </g>
          </g>
          <g
             id="text_9">
            <!-- −16 -->
            <g
               transform="translate(21.7 347.438438)scale(0.1 -0.1)"
               id="g233">
              <defs
                 id="defs225">
                <path
                   id="DejaVuSans-2212"
                   d="M 678 2272  L 4684 2272  L 4684 1741  L 678 1741  L 678 2272  z "
                   transform="scale(0.015625)" />
              </defs>
              <use
                 xlink:href="#DejaVuSans-2212"
                 id="use227" />
              <use
                 xlink:href="#DejaVuSans-31"
                 x="83.789062"
                 id="use229" />
              <use
                 xlink:href="#DejaVuSans-36"
                 x="147.412109"
                 id="use231" />
            </g>
          </g>
        </g>
        <g
           id="ytick_2">
          <g
             id="line2d_30">
            <g
               id="g239">
              <use
                 xlink:href="#mf8c52e26ee"
                 x="49.804688"
                 y="306.679219"
                 style="stroke: #000000; stroke-width: 0.8"
                 id="use237" />
            </g>
          </g>
          <g
             id="text_10">
            <!-- −14 -->
            <g
               transform="translate(21.7 310.478438)scale(0.1 -0.1)"
               id="g248">
              <use
                 xlink:href="#DejaVuSans-2212"
                 id="use242" />
              <use
                 xlink:href="#DejaVuSans-31"
                 x="83.789062"
                 id="use244" />
              <use
                 xlink:href="#DejaVuSans-34"
                 x="147.412109"
                 id="use246" />
            </g>
          </g>
        </g>
        <g
           id="ytick_3">
          <g
             id="line2d_31">
            <g
               id="g254">
              <use
                 xlink:href="#mf8c52e26ee"
                 x="49.804688"
                 y="269.719219"
                 style="stroke: #000000; stroke-width: 0.8"
                 id="use252" />
            </g>
          </g>
          <g
             id="text_11">
            <!-- −12 -->
            <g
               transform="translate(21.7 273.518438)scale(0.1 -0.1)"
               id="g263">
              <use
                 xlink:href="#DejaVuSans-2212"
                 id="use257" />
              <use
                 xlink:href="#DejaVuSans-31"
                 x="83.789062"
                 id="use259" />
              <use
                 xlink:href="#DejaVuSans-32"
                 x="147.412109"
                 id="use261" />
            </g>
          </g>
        </g>
        <g
           id="ytick_4">
          <g
             id="line2d_32">
            <g
               id="g269">
              <use
                 xlink:href="#mf8c52e26ee"
                 x="49.804688"
                 y="232.759219"
                 style="stroke: #000000; stroke-width: 0.8"
                 id="use267" />
            </g>
          </g>
          <g
             id="text_12">
            <!-- −10 -->
            <g
               transform="translate(21.7 236.558437)scale(0.1 -0.1)"
               id="g278">
              <use
                 xlink:href="#DejaVuSans-2212"
                 id="use272" />
              <use
                 xlink:href="#DejaVuSans-31"
                 x="83.789062"
                 id="use274" />
              <use
                 xlink:href="#DejaVuSans-30"
                 x="147.412109"
                 id="use276" />
            </g>
          </g>
        </g>
        <g
           id="ytick_5">
          <g
             id="line2d_33">
            <g
               id="g284">
              <use
                 xlink:href="#mf8c52e26ee"
                 x="49.804688"
                 y="195.799219"
                 style="stroke: #000000; stroke-width: 0.8"
                 id="use282" />
            </g>
          </g>
          <g
             id="text_13">
            <!-- −8 -->
            <g
               transform="translate(28.0625 199.598437)scale(0.1 -0.1)"
               id="g291">
              <use
                 xlink:href="#DejaVuSans-2212"
                 id="use287" />
              <use
                 xlink:href="#DejaVuSans-38"
                 x="83.789062"
                 id="use289" />
            </g>
          </g>
        </g>
        <g
           id="ytick_6">
          <g
             id="line2d_34">
            <g
               id="g297">
              <use
                 xlink:href="#mf8c52e26ee"
                 x="49.804688"
                 y="158.839219"
                 style="stroke: #000000; stroke-width: 0.8"
                 id="use295" />
            </g>
          </g>
          <g
             id="text_14">
            <!-- −6 -->
            <g
               transform="translate(28.0625 162.638437)scale(0.1 -0.1)"
               id="g304">
              <use
                 xlink:href="#DejaVuSans-2212"
                 id="use300" />
              <use
                 xlink:href="#DejaVuSans-36"
                 x="83.789062"
                 id="use302" />
            </g>
          </g>
        </g>
        <g
           id="ytick_7">
          <g
             id="line2d_35">
            <g
               id="g310">
              <use
                 xlink:href="#mf8c52e26ee"
                 x="49.804688"
                 y="121.879219"
                 style="stroke: #000000; stroke-width: 0.8"
                 id="use308" />
            </g>
          </g>
          <g
             id="text_15">
            <!-- −4 -->
            <g
               transform="translate(28.0625 125.678438)scale(0.1 -0.1)"
               id="g317">
              <use
                 xlink:href="#DejaVuSans-2212"
                 id="use313" />
              <use
                 xlink:href="#DejaVuSans-34"
                 x="83.789062"
                 id="use315" />
            </g>
          </g>
        </g>
        <g
           id="ytick_8">
          <g
             id="line2d_36">
            <g
               id="g323">
              <use
                 xlink:href="#mf8c52e26ee"
                 x="49.804688"
                 y="84.919219"
                 style="stroke: #000000; stroke-width: 0.8"
                 id="use321" />
            </g>
          </g>
          <g
             id="text_16">
            <!-- −2 -->
            <g
               transform="translate(28.0625 88.718437)scale(0.1 -0.1)"
               id="g330">
              <use
                 xlink:href="#DejaVuSans-2212"
                 id="use326" />
              <use
                 xlink:href="#DejaVuSans-32"
                 x="83.789062"
                 id="use328" />
            </g>
          </g>
        </g>
        <g
           id="ytick_9">
          <g
             id="line2d_37">
            <g
               id="g336">
              <use
                 xlink:href="#mf8c52e26ee"
                 x="49.804688"
                 y="47.959219"
                 style="stroke: #000000; stroke-width: 0.8"
                 id="use334" />
            </g>
          </g>
          <g
             id="text_17">
            <!-- 0 -->
            <g
               transform="translate(36.442188 51.758438)scale(0.1 -0.1)"
               id="g341">
              <use
                 xlink:href="#DejaVuSans-30"
                 id="use339" />
            </g>
          </g>
        </g>
        <g
           id="ytick_10">
          <g
             id="line2d_38">
            <g
               id="g347">
              <use
                 xlink:href="#mf8c52e26ee"
                 x="49.804688"
                 y="10.999219"
                 style="stroke: #000000; stroke-width: 0.8"
                 id="use345" />
            </g>
          </g>
          <g
             id="text_18">
            <!-- 2 -->
            <g
               transform="translate(36.442188 14.798438)scale(0.1 -0.1)"
               id="g352">
              <use
                 xlink:href="#DejaVuSans-32"
                 id="use350" />
            </g>
          </g>
        </g>
        <g
           id="text_19">
          <!-- $(a,b - n^2) / max(1, n^2)$ -->
          <g
             transform="translate(15.620312 229.919219)rotate(-90)scale(0.1 -0.1)"
             id="g395">
            <defs
               id="defs357">
              <path
                 id="DejaVuSans-Oblique-62"
                 d="M 3169 2138  Q 3169 2591 2961 2847  Q 2753 3103 2388 3103  Q 2122 3103 1889 2973  Q 1656 2844 1484 2597  Q 1303 2338 1198 1995  Q 1094 1653 1094 1313  Q 1094 881 1298 636  Q 1503 391 1863 391  Q 2134 391 2365 517  Q 2597 644 2772 891  Q 2950 1147 3059 1487  Q 3169 1828 3169 2138  z M 1381 2969  Q 1594 3256 1914 3420  Q 2234 3584 2584 3584  Q 3122 3584 3439 3221  Q 3756 2859 3756 2241  Q 3756 1734 3570 1259  Q 3384 784 3041 416  Q 2816 172 2522 40  Q 2228 -91 1906 -91  Q 1566 -91 1316 65  Q 1066 222 909 531  L 806 0  L 231 0  L 1178 4863  L 1753 4863  L 1381 2969  z "
                 transform="scale(0.015625)" />
            </defs>
            <use
               xlink:href="#DejaVuSans-28"
               transform="translate(0 0.765625)"
               id="use359" />
            <use
               xlink:href="#DejaVuSans-Oblique-61"
               transform="translate(39.013672 0.765625)"
               id="use361" />
            <use
               xlink:href="#DejaVuSans-2c"
               transform="translate(100.292969 0.765625)"
               id="use363" />
            <use
               xlink:href="#DejaVuSans-Oblique-62"
               transform="translate(151.5625 0.765625)"
               id="use365" />
            <use
               xlink:href="#DejaVuSans-2212"
               transform="translate(234.521484 0.765625)"
               id="use367" />
            <use
               xlink:href="#DejaVuSans-Oblique-6e"
               transform="translate(337.792969 0.765625)"
               id="use369" />
            <use
               xlink:href="#DejaVuSans-32"
               transform="translate(405.821771 39.046875)scale(0.7)"
               id="use371" />
            <use
               xlink:href="#DejaVuSans-29"
               transform="translate(453.092279 0.765625)"
               id="use373" />
            <use
               xlink:href="#DejaVuSans-2f"
               transform="translate(492.105951 0.765625)"
               id="use375" />
            <use
               xlink:href="#DejaVuSans-Oblique-6d"
               transform="translate(525.797357 0.765625)"
               id="use377" />
            <use
               xlink:href="#DejaVuSans-Oblique-61"
               transform="translate(623.209466 0.765625)"
               id="use379" />
            <use
               xlink:href="#DejaVuSans-Oblique-78"
               transform="translate(684.488763 0.765625)"
               id="use381" />
            <use
               xlink:href="#DejaVuSans-28"
               transform="translate(743.668451 0.765625)"
               id="use383" />
            <use
               xlink:href="#DejaVuSans-31"
               transform="translate(782.682122 0.765625)"
               id="use385" />
            <use
               xlink:href="#DejaVuSans-2c"
               transform="translate(846.305169 0.765625)"
               id="use387" />
            <use
               xlink:href="#DejaVuSans-Oblique-6e"
               transform="translate(897.574701 0.765625)"
               id="use389" />
            <use
               xlink:href="#DejaVuSans-32"
               transform="translate(965.603503 39.046875)scale(0.7)"
               id="use391" />
            <use
               xlink:href="#DejaVuSans-29"
               transform="translate(1012.87401 0.765625)"
               id="use393" />
          </g>
        </g>
      </g>
      <g
         id="patch_3">
        <path
           d="M 49.804688 343.639219  L 49.804688 10.999219  "
           style="fill: none; stroke: #000000; stroke-width: 0.8; stroke-linejoin: miter; stroke-linecap: square"
           id="path399" />
      </g>
      <g
         id="patch_4">
        <path
           d="M 719.404688 343.639219  L 719.404688 10.999219  "
           style="fill: none; stroke: #000000; stroke-width: 0.8; stroke-linejoin: miter; stroke-linecap: square"
           id="path402" />
      </g>
      <g
         id="patch_5">
        <path
           d="M 49.804688 343.639219  L 719.404687 343.639219  "
           style="fill: none; stroke: #000000; stroke-width: 0.8; stroke-linejoin: miter; stroke-linecap: square"
           id="path405" />
      </g>
      <g
         id="patch_6">
        <path
           d="M 49.804688 10.999219  L 719.404687 10.999219  "
           style="fill: none; stroke: #000000; stroke-width: 0.8; stroke-linejoin: miter; stroke-linecap: square"
           id="path408" />
      </g>
      <g
         id="legend_1">
        <g
           id="patch_7">
          <path
             d="M 56.804688 338.639219  L 176.604688 338.639219  Q 178.604688 338.639219 178.604688 336.639219  L 178.604688 176.179844  Q 178.604688 174.179844 176.604688 174.179844  L 56.804688 174.179844  Q 54.804688 174.179844 54.804688 176.179844  L 54.804688 336.639219  Q 54.804688 338.639219 56.804688 338.639219  z "
             style="fill: #ffffff; opacity: 0.8; stroke: #cccccc; stroke-linejoin: miter"
             id="path411" />
        </g>
        <g
           id="line2d_39">
          <path
             d="M 58.804688 182.278281  L 68.804688 182.278281  L 78.804688 182.278281  "
             style="fill: none; stroke: #333333; stroke-width: 1.5; stroke-linecap: square"
             id="path414" />
        </g>
        <g
           id="text_20">
          <!-- $a_0$ -->
          <g
             transform="translate(86.804688 185.778281)scale(0.1 -0.1)"
             id="g421">
            <use
               xlink:href="#DejaVuSans-Oblique-61"
               id="use417" />
            <use
               xlink:href="#DejaVuSans-30"
               transform="translate(61.279297 -16.40625)scale(0.7)"
               id="use419" />
          </g>
        </g>
        <g
           id="line2d_40">
          <path
             d="M 58.804688 196.956406  L 68.804688 196.956406  L 78.804688 196.956406  "
             style="fill: none; stroke: #ff0000; stroke-width: 1.5; stroke-linecap: square"
             id="path424" />
        </g>
        <g
           id="text_21">
          <!-- $a_{1}$ -->
          <g
             transform="translate(86.804688 200.456406)scale(0.1 -0.1)"
             id="g431">
            <use
               xlink:href="#DejaVuSans-Oblique-61"
               id="use427" />
            <use
               xlink:href="#DejaVuSans-31"
               transform="translate(61.279297 -16.40625)scale(0.7)"
               id="use429" />
          </g>
        </g>
        <g
           id="line2d_41">
          <path
             d="M 58.804688 211.634531  L 68.804688 211.634531  L 78.804688 211.634531  "
             style="fill: none; stroke-dasharray: 5.55,2.4; stroke-dashoffset: 0; stroke: #ff1414; stroke-width: 1.5"
             id="path434" />
        </g>
        <g
           id="text_22">
          <!-- $a_{2}$ -->
          <g
             transform="translate(86.804688 215.134531)scale(0.1 -0.1)"
             id="g441">
            <use
               xlink:href="#DejaVuSans-Oblique-61"
               id="use437" />
            <use
               xlink:href="#DejaVuSans-32"
               transform="translate(61.279297 -16.40625)scale(0.7)"
               id="use439" />
          </g>
        </g>
        <g
           id="line2d_42">
          <path
             d="M 58.804688 226.312656  L 68.804688 226.312656  L 78.804688 226.312656  "
             style="fill: none; stroke: #ff2929; stroke-width: 1.5; stroke-linecap: square"
             id="path444" />
        </g>
        <g
           id="text_23">
          <!-- $a_{3}$ -->
          <g
             transform="translate(86.804688 229.812656)scale(0.1 -0.1)"
             id="g454">
            <defs
               id="defs448">
              <path
                 id="DejaVuSans-33"
                 d="M 2597 2516  Q 3050 2419 3304 2112  Q 3559 1806 3559 1356  Q 3559 666 3084 287  Q 2609 -91 1734 -91  Q 1441 -91 1130 -33  Q 819 25 488 141  L 488 750  Q 750 597 1062 519  Q 1375 441 1716 441  Q 2309 441 2620 675  Q 2931 909 2931 1356  Q 2931 1769 2642 2001  Q 2353 2234 1838 2234  L 1294 2234  L 1294 2753  L 1863 2753  Q 2328 2753 2575 2939  Q 2822 3125 2822 3475  Q 2822 3834 2567 4026  Q 2313 4219 1838 4219  Q 1578 4219 1281 4162  Q 984 4106 628 3988  L 628 4550  Q 988 4650 1302 4700  Q 1616 4750 1894 4750  Q 2613 4750 3031 4423  Q 3450 4097 3450 3541  Q 3450 3153 3228 2886  Q 3006 2619 2597 2516  z "
                 transform="scale(0.015625)" />
            </defs>
            <use
               xlink:href="#DejaVuSans-Oblique-61"
               id="use450" />
            <use
               xlink:href="#DejaVuSans-33"
               transform="translate(61.279297 -16.40625)scale(0.7)"
               id="use452" />
          </g>
        </g>
        <g
           id="line2d_43">
          <path
             d="M 58.804688 240.990781  L 68.804688 240.990781  L 78.804688 240.990781  "
             style="fill: none; stroke-dasharray: 5.55,2.4; stroke-dashoffset: 0; stroke: #ff3d3d; stroke-width: 1.5"
             id="path457" />
        </g>
        <g
           id="text_24">
          <!-- $a_{4}$ -->
          <g
             transform="translate(86.804688 244.490781)scale(0.1 -0.1)"
             id="g464">
            <use
               xlink:href="#DejaVuSans-Oblique-61"
               id="use460" />
            <use
               xlink:href="#DejaVuSans-34"
               transform="translate(61.279297 -16.40625)scale(0.7)"
               id="use462" />
          </g>
        </g>
        <g
           id="line2d_44">
          <path
             d="M 58.804688 255.668906  L 68.804688 255.668906  L 78.804688 255.668906  "
             style="fill: none; stroke: #ff5252; stroke-width: 1.5; stroke-linecap: square"
             id="path467" />
        </g>
        <g
           id="text_25">
          <!-- $a_{8}$ -->
          <g
             transform="translate(86.804688 259.168906)scale(0.1 -0.1)"
             id="g474">
            <use
               xlink:href="#DejaVuSans-Oblique-61"
               id="use470" />
            <use
               xlink:href="#DejaVuSans-38"
               transform="translate(61.279297 -16.40625)scale(0.7)"
               id="use472" />
          </g>
        </g>
        <g
           id="line2d_45">
          <path
             d="M 58.804688 270.347031  L 68.804688 270.347031  L 78.804688 270.347031  "
             style="fill: none; stroke-dasharray: 5.55,2.4; stroke-dashoffset: 0; stroke: #ff6666; stroke-width: 1.5"
             id="path477" />
        </g>
        <g
           id="text_26">
          <!-- $a_{16}$ -->
          <g
             transform="translate(86.804688 273.847031)scale(0.1 -0.1)"
             id="g486">
            <use
               xlink:href="#DejaVuSans-Oblique-61"
               id="use480" />
            <use
               xlink:href="#DejaVuSans-31"
               transform="translate(61.279297 -16.40625)scale(0.7)"
               id="use482" />
            <use
               xlink:href="#DejaVuSans-36"
               transform="translate(105.81543 -16.40625)scale(0.7)"
               id="use484" />
          </g>
        </g>
        <g
           id="line2d_46">
          <path
             d="M 58.804688 285.025156  L 68.804688 285.025156  L 78.804688 285.025156  "
             style="fill: none; stroke: #ff7a7a; stroke-width: 1.5; stroke-linecap: square"
             id="path489" />
        </g>
        <g
           id="text_27">
          <!-- $a_{32}$ -->
          <g
             transform="translate(86.804688 288.525156)scale(0.1 -0.1)"
             id="g498">
            <use
               xlink:href="#DejaVuSans-Oblique-61"
               id="use492" />
            <use
               xlink:href="#DejaVuSans-33"
               transform="translate(61.279297 -16.40625)scale(0.7)"
               id="use494" />
            <use
               xlink:href="#DejaVuSans-32"
               transform="translate(105.81543 -16.40625)scale(0.7)"
               id="use496" />
          </g>
        </g>
        <g
           id="line2d_47">
          <path
             d="M 58.804688 299.703281  L 68.804688 299.703281  L 78.804688 299.703281  "
             style="fill: none; stroke-dasharray: 5.55,2.4; stroke-dashoffset: 0; stroke: #ff8f8f; stroke-width: 1.5"
             id="path501" />
        </g>
        <g
           id="text_28">
          <!-- $a_{64}$ -->
          <g
             transform="translate(86.804688 303.203281)scale(0.1 -0.1)"
             id="g510">
            <use
               xlink:href="#DejaVuSans-Oblique-61"
               id="use504" />
            <use
               xlink:href="#DejaVuSans-36"
               transform="translate(61.279297 -16.40625)scale(0.7)"
               id="use506" />
            <use
               xlink:href="#DejaVuSans-34"
               transform="translate(105.81543 -16.40625)scale(0.7)"
               id="use508" />
          </g>
        </g>
        <g
           id="line2d_48">
          <path
             d="M 58.804688 314.381406  L 68.804688 314.381406  L 78.804688 314.381406  "
             style="fill: none; stroke: #ffa3a3; stroke-width: 1.5; stroke-linecap: square"
             id="path513" />
        </g>
        <g
           id="text_29">
          <!-- $a_{128}$ -->
          <g
             transform="translate(86.804688 317.881406)scale(0.1 -0.1)"
             id="g524">
            <use
               xlink:href="#DejaVuSans-Oblique-61"
               id="use516" />
            <use
               xlink:href="#DejaVuSans-31"
               transform="translate(61.279297 -16.40625)scale(0.7)"
               id="use518" />
            <use
               xlink:href="#DejaVuSans-32"
               transform="translate(105.81543 -16.40625)scale(0.7)"
               id="use520" />
            <use
               xlink:href="#DejaVuSans-38"
               transform="translate(150.351562 -16.40625)scale(0.7)"
               id="use522" />
          </g>
        </g>
        <g
           id="line2d_49">
          <path
             d="M 58.804688 329.059531  L 68.804688 329.059531  L 78.804688 329.059531  "
             style="fill: none; stroke-dasharray: 5.55,2.4; stroke-dashoffset: 0; stroke: #ffb8b8; stroke-width: 1.5"
             id="path527" />
        </g>
        <g
           id="text_30">
          <!-- $a_{256}$ -->
          <g
             transform="translate(86.804688 332.559531)scale(0.1 -0.1)"
             id="g541">
            <defs
               id="defs531">
              <path
                 id="DejaVuSans-35"
                 d="M 691 4666  L 3169 4666  L 3169 4134  L 1269 4134  L 1269 2991  Q 1406 3038 1543 3061  Q 1681 3084 1819 3084  Q 2600 3084 3056 2656  Q 3513 2228 3513 1497  Q 3513 744 3044 326  Q 2575 -91 1722 -91  Q 1428 -91 1123 -41  Q 819 9 494 109  L 494 744  Q 775 591 1075 516  Q 1375 441 1709 441  Q 2250 441 2565 725  Q 2881 1009 2881 1497  Q 2881 1984 2565 2268  Q 2250 2553 1709 2553  Q 1456 2553 1204 2497  Q 953 2441 691 2322  L 691 4666  z "
                 transform="scale(0.015625)" />
            </defs>
            <use
               xlink:href="#DejaVuSans-Oblique-61"
               id="use533" />
            <use
               xlink:href="#DejaVuSans-32"
               transform="translate(61.279297 -16.40625)scale(0.7)"
               id="use535" />
            <use
               xlink:href="#DejaVuSans-35"
               transform="translate(105.81543 -16.40625)scale(0.7)"
               id="use537" />
            <use
               xlink:href="#DejaVuSans-36"
               transform="translate(150.351562 -16.40625)scale(0.7)"
               id="use539" />
          </g>
        </g>
        <g
           id="line2d_50"
           transform="translate(0,14.661954)"
           style="stroke-linecap:butt;stroke-linejoin:round">
          <path
             d="m 126.60469,182.27828 h 10 10"
             style="fill:none;stroke:#0000ff;stroke-width:1.5;stroke-linecap:square;stroke-linejoin:round"
             id="path544"
             inkscape:connector-curvature="0" />
        </g>
        <g
           id="text_31"
           transform="translate(0,14.661954)"
           style="stroke-linecap:butt;stroke-linejoin:round">
          <!-- $b_{1}$ -->
          <g
             transform="matrix(0.1,0,0,-0.1,154.60469,185.77828)"
             id="g551"
             style="stroke-linecap:butt;stroke-linejoin:round">
            <use
               xlink:href="#DejaVuSans-Oblique-62"
               transform="translate(0,0.015625)"
               id="use547"
               style="stroke-linecap:butt;stroke-linejoin:round"
               x="0"
               y="0"
               width="100%"
               height="100%" />
            <use
               xlink:href="#DejaVuSans-31"
               transform="matrix(0.7,0,0,0.7,63.476562,-16.390625)"
               id="use549"
               style="stroke-linecap:butt;stroke-linejoin:round"
               x="0"
               y="0"
               width="100%"
               height="100%" />
          </g>
        </g>
        <g
           id="line2d_51"
           transform="translate(0,14.661954)"
           style="stroke-linecap:butt;stroke-linejoin:round">
          <path
             d="m 126.60469,196.95641 h 10 10"
             style="fill:none;stroke:#1414ff;stroke-width:1.5;stroke-linecap:butt;stroke-linejoin:round;stroke-dasharray:5.55, 2.4;stroke-dashoffset:0"
             id="path554"
             inkscape:connector-curvature="0" />
        </g>
        <g
           id="text_32"
           transform="translate(0,14.661954)"
           style="stroke-linecap:butt;stroke-linejoin:round">
          <!-- $b_{2}$ -->
          <g
             transform="matrix(0.1,0,0,-0.1,154.60469,200.45641)"
             id="g561"
             style="stroke-linecap:butt;stroke-linejoin:round">
            <use
               xlink:href="#DejaVuSans-Oblique-62"
               transform="translate(0,0.015625)"
               id="use557"
               style="stroke-linecap:butt;stroke-linejoin:round"
               x="0"
               y="0"
               width="100%"
               height="100%" />
            <use
               xlink:href="#DejaVuSans-32"
               transform="matrix(0.7,0,0,0.7,63.476562,-16.390625)"
               id="use559"
               style="stroke-linecap:butt;stroke-linejoin:round"
               x="0"
               y="0"
               width="100%"
               height="100%" />
          </g>
        </g>
        <g
           id="line2d_52"
           transform="translate(0,14.661954)"
           style="stroke-linecap:butt;stroke-linejoin:round">
          <path
             d="m 126.60469,211.63453 h 10 10"
             style="fill:none;stroke:#2929ff;stroke-width:1.5;stroke-linecap:square;stroke-linejoin:round"
             id="path564"
             inkscape:connector-curvature="0" />
        </g>
        <g
           id="text_33"
           transform="translate(0,14.661954)"
           style="stroke-linecap:butt;stroke-linejoin:round">
          <!-- $b_{3}$ -->
          <g
             transform="matrix(0.1,0,0,-0.1,154.60469,215.13453)"
             id="g571"
             style="stroke-linecap:butt;stroke-linejoin:round">
            <use
               xlink:href="#DejaVuSans-Oblique-62"
               transform="translate(0,0.015625)"
               id="use567"
               style="stroke-linecap:butt;stroke-linejoin:round"
               x="0"
               y="0"
               width="100%"
               height="100%" />
            <use
               xlink:href="#DejaVuSans-33"
               transform="matrix(0.7,0,0,0.7,63.476562,-16.390625)"
               id="use569"
               style="stroke-linecap:butt;stroke-linejoin:round"
               x="0"
               y="0"
               width="100%"
               height="100%" />
          </g>
        </g>
        <g
           id="line2d_53"
           transform="translate(0,14.661954)"
           style="stroke-linecap:butt;stroke-linejoin:round">
          <path
             d="m 126.60469,226.31266 h 10 10"
             style="fill:none;stroke:#3d3dff;stroke-width:1.5;stroke-linecap:butt;stroke-linejoin:round;stroke-dasharray:5.55, 2.4;stroke-dashoffset:0"
             id="path574"
             inkscape:connector-curvature="0" />
        </g>
        <g
           id="text_34"
           transform="translate(0,14.661954)"
           style="stroke-linecap:butt;stroke-linejoin:round">
          <!-- $b_{4}$ -->
          <g
             transform="matrix(0.1,0,0,-0.1,154.60469,229.81266)"
             id="g581"
             style="stroke-linecap:butt;stroke-linejoin:round">
            <use
               xlink:href="#DejaVuSans-Oblique-62"
               transform="translate(0,0.015625)"
               id="use577"
               style="stroke-linecap:butt;stroke-linejoin:round"
               x="0"
               y="0"
               width="100%"
               height="100%" />
            <use
               xlink:href="#DejaVuSans-34"
               transform="matrix(0.7,0,0,0.7,63.476562,-16.390625)"
               id="use579"
               style="stroke-linecap:butt;stroke-linejoin:round"
               x="0"
               y="0"
               width="100%"
               height="100%" />
          </g>
        </g>
        <g
           id="line2d_54"
           transform="translate(0,14.661954)"
           style="stroke-linecap:butt;stroke-linejoin:round">
          <path
             d="m 126.60469,240.99078 h 10 10"
             style="fill:none;stroke:#5252ff;stroke-width:1.5;stroke-linecap:square;stroke-linejoin:round"
             id="path584"
             inkscape:connector-curvature="0" />
        </g>
        <g
           id="text_35"
           transform="translate(0,14.661954)"
           style="stroke-linecap:butt;stroke-linejoin:round">
          <!-- $b_{8}$ -->
          <g
             transform="matrix(0.1,0,0,-0.1,154.60469,244.49078)"
             id="g591"
             style="stroke-linecap:butt;stroke-linejoin:round">
            <use
               xlink:href="#DejaVuSans-Oblique-62"
               transform="translate(0,0.015625)"
               id="use587"
               style="stroke-linecap:butt;stroke-linejoin:round"
               x="0"
               y="0"
               width="100%"
               height="100%" />
            <use
               xlink:href="#DejaVuSans-38"
               transform="matrix(0.7,0,0,0.7,63.476562,-16.390625)"
               id="use589"
               style="stroke-linecap:butt;stroke-linejoin:round"
               x="0"
               y="0"
               width="100%"
               height="100%" />
          </g>
        </g>
        <g
           id="line2d_55"
           transform="translate(0,14.661954)"
           style="stroke-linecap:butt;stroke-linejoin:round">
          <path
             d="m 126.60469,255.66891 h 10 10"
             style="fill:none;stroke:#6666ff;stroke-width:1.5;stroke-linecap:butt;stroke-linejoin:round;stroke-dasharray:5.55, 2.4;stroke-dashoffset:0"
             id="path594"
             inkscape:connector-curvature="0" />
        </g>
        <g
           id="text_36"
           transform="translate(0,14.661954)"
           style="stroke-linecap:butt;stroke-linejoin:round">
          <!-- $b_{16}$ -->
          <g
             transform="matrix(0.1,0,0,-0.1,154.60469,259.16891)"
             id="g603"
             style="stroke-linecap:butt;stroke-linejoin:round">
            <use
               xlink:href="#DejaVuSans-Oblique-62"
               transform="translate(0,0.015625)"
               id="use597"
               style="stroke-linecap:butt;stroke-linejoin:round"
               x="0"
               y="0"
               width="100%"
               height="100%" />
            <use
               xlink:href="#DejaVuSans-31"
               transform="matrix(0.7,0,0,0.7,63.476562,-16.390625)"
               id="use599"
               style="stroke-linecap:butt;stroke-linejoin:round"
               x="0"
               y="0"
               width="100%"
               height="100%" />
            <use
               xlink:href="#DejaVuSans-36"
               transform="matrix(0.7,0,0,0.7,108.01269,-16.390625)"
               id="use601"
               style="stroke-linecap:butt;stroke-linejoin:round"
               x="0"
               y="0"
               width="100%"
               height="100%" />
          </g>
        </g>
        <g
           id="line2d_56"
           transform="translate(0,14.661954)"
           style="stroke-linecap:butt;stroke-linejoin:round">
          <path
             d="m 126.60469,270.34703 h 10 10"
             style="fill:none;stroke:#7a7aff;stroke-width:1.5;stroke-linecap:square;stroke-linejoin:round"
             id="path606"
             inkscape:connector-curvature="0" />
        </g>
        <g
           id="text_37"
           transform="translate(0,14.661954)"
           style="stroke-linecap:butt;stroke-linejoin:round">
          <!-- $b_{32}$ -->
          <g
             transform="matrix(0.1,0,0,-0.1,154.60469,273.84703)"
             id="g615"
             style="stroke-linecap:butt;stroke-linejoin:round">
            <use
               xlink:href="#DejaVuSans-Oblique-62"
               transform="translate(0,0.015625)"
               id="use609"
               style="stroke-linecap:butt;stroke-linejoin:round"
               x="0"
               y="0"
               width="100%"
               height="100%" />
            <use
               xlink:href="#DejaVuSans-33"
               transform="matrix(0.7,0,0,0.7,63.476562,-16.390625)"
               id="use611"
               style="stroke-linecap:butt;stroke-linejoin:round"
               x="0"
               y="0"
               width="100%"
               height="100%" />
            <use
               xlink:href="#DejaVuSans-32"
               transform="matrix(0.7,0,0,0.7,108.01269,-16.390625)"
               id="use613"
               style="stroke-linecap:butt;stroke-linejoin:round"
               x="0"
               y="0"
               width="100%"
               height="100%" />
          </g>
        </g>
        <g
           id="line2d_57"
           transform="translate(0,14.661954)"
           style="stroke-linecap:butt;stroke-linejoin:round">
          <path
             d="m 126.60469,285.02516 h 10 10"
             style="fill:none;stroke:#8f8fff;stroke-width:1.5;stroke-linecap:butt;stroke-linejoin:round;stroke-dasharray:5.55, 2.4;stroke-dashoffset:0"
             id="path618"
             inkscape:connector-curvature="0" />
        </g>
        <g
           id="text_38"
           transform="translate(0,14.661954)"
           style="stroke-linecap:butt;stroke-linejoin:round">
          <!-- $b_{64}$ -->
          <g
             transform="matrix(0.1,0,0,-0.1,154.60469,288.52516)"
             id="g627"
             style="stroke-linecap:butt;stroke-linejoin:round">
            <use
               xlink:href="#DejaVuSans-Oblique-62"
               transform="translate(0,0.015625)"
               id="use621"
               style="stroke-linecap:butt;stroke-linejoin:round"
               x="0"
               y="0"
               width="100%"
               height="100%" />
            <use
               xlink:href="#DejaVuSans-36"
               transform="matrix(0.7,0,0,0.7,63.476562,-16.390625)"
               id="use623"
               style="stroke-linecap:butt;stroke-linejoin:round"
               x="0"
               y="0"
               width="100%"
               height="100%" />
            <use
               xlink:href="#DejaVuSans-34"
               transform="matrix(0.7,0,0,0.7,108.01269,-16.390625)"
               id="use625"
               style="stroke-linecap:butt;stroke-linejoin:round"
               x="0"
               y="0"
               width="100%"
               height="100%" />
          </g>
        </g>
        <g
           id="line2d_58"
           transform="translate(0,14.661954)"
           style="stroke-linecap:butt;stroke-linejoin:round">
          <path
             d="m 126.60469,299.70328 h 10 10"
             style="fill:none;stroke:#a3a3ff;stroke-width:1.5;stroke-linecap:square;stroke-linejoin:round"
             id="path630"
             inkscape:connector-curvature="0" />
        </g>
        <g
           id="text_39"
           transform="translate(0,14.661954)"
           style="stroke-linecap:butt;stroke-linejoin:round">
          <!-- $b_{128}$ -->
          <g
             transform="matrix(0.1,0,0,-0.1,154.60469,303.20328)"
             id="g641"
             style="stroke-linecap:butt;stroke-linejoin:round">
            <use
               xlink:href="#DejaVuSans-Oblique-62"
               transform="translate(0,0.015625)"
               id="use633"
               style="stroke-linecap:butt;stroke-linejoin:round"
               x="0"
               y="0"
               width="100%"
               height="100%" />
            <use
               xlink:href="#DejaVuSans-31"
               transform="matrix(0.7,0,0,0.7,63.476562,-16.390625)"
               id="use635"
               style="stroke-linecap:butt;stroke-linejoin:round"
               x="0"
               y="0"
               width="100%"
               height="100%" />
            <use
               xlink:href="#DejaVuSans-32"
               transform="matrix(0.7,0,0,0.7,108.01269,-16.390625)"
               id="use637"
               style="stroke-linecap:butt;stroke-linejoin:round"
               x="0"
               y="0"
               width="100%"
               height="100%" />
            <use
               xlink:href="#DejaVuSans-38"
               transform="matrix(0.7,0,0,0.7,152.54883,-16.390625)"
               id="use639"
               style="stroke-linecap:butt;stroke-linejoin:round"
               x="0"
               y="0"
               width="100%"
               height="100%" />
          </g>
        </g>
        <g
           id="line2d_59"
           transform="translate(0,14.661954)"
           style="stroke-linecap:butt;stroke-linejoin:round">
          <path
             d="m 126.60469,314.38141 h 10 10"
             style="fill:none;stroke:#b8b8ff;stroke-width:1.5;stroke-linecap:butt;stroke-linejoin:round;stroke-dasharray:5.55, 2.4;stroke-dashoffset:0"
             id="path644"
             inkscape:connector-curvature="0" />
        </g>
        <g
           id="text_40"
           transform="translate(0,14.661954)"
           style="stroke-linecap:butt;stroke-linejoin:round">
          <!-- $b_{256}$ -->
          <g
             transform="matrix(0.1,0,0,-0.1,154.60469,317.88141)"
             id="g655"
             style="stroke-linecap:butt;stroke-linejoin:round">
            <use
               xlink:href="#DejaVuSans-Oblique-62"
               transform="translate(0,0.015625)"
               id="use647"
               style="stroke-linecap:butt;stroke-linejoin:round"
               x="0"
               y="0"
               width="100%"
               height="100%" />
            <use
               xlink:href="#DejaVuSans-32"
               transform="matrix(0.7,0,0,0.7,63.476562,-16.390625)"
               id="use649"
               style="stroke-linecap:butt;stroke-linejoin:round"
               x="0"
               y="0"
               width="100%"
               height="100%" />
            <use
               xlink:href="#DejaVuSans-35"
               transform="matrix(0.7,0,0,0.7,108.01269,-16.390625)"
               id="use651"
               style="stroke-linecap:butt;stroke-linejoin:round"
               x="0"
               y="0"
               width="100%"
               height="100%" />
            <use
               xlink:href="#DejaVuSans-36"
               transform="matrix(0.7,0,0,0.7,152.54883,-16.390625)"
               id="use653"
               style="stroke-linecap:butt;stroke-linejoin:round"
               x="0"
               y="0"
               width="100%"
               height="100%" />
          </g>
        </g>
      </g>
    </g>
  </g>
  <defs
     id="defs664">
    <clipPath
       id="p87ab0cf9ed">
      <rect
         x="49.804688"
         y="10.999219"
         width="669.6"
         height="332.64"
         id="rect661" />
    </clipPath>
  </defs>
</svg>
